<?xml version="1.0" standalone="no"?>
<!DOCTYPE svg PUBLIC "-//W3C//DTD SVG 1.1//EN" "http://www.w3.org/Graphics/SVG/1.1/DTD/svg11.dtd" >
<svg xmlns="http://www.w3.org/2000/svg" xmlns:xlink="http://www.w3.org/1999/xlink" version="1.1">
<metadata></metadata>
<defs>
<font id="ekkamai_standardbold" horiz-adv-x="0" >
<font-face units-per-em="2048" ascent="1638" descent="-410" />
<missing-glyph horiz-adv-x="690" />
<glyph unicode="&#x91;&#x91;" horiz-adv-x="843" d="M186 1329l17 125l108 -12l-14 -125q-8 -66 3 -132.5t58 -113.5l-79 -78q-66 68 -84.5 157t-8.5 179zM516 1329l16 125l109 -12l-14 -125q-8 -66 3 -132.5t58 -113.5l-80 -78q-66 68 -84 157t-8 179z" />
<glyph unicode="&#x92;&#x92;" horiz-adv-x="784" d="M131 1376l80 78q66 -68 84 -157t8 -179l-16 -125l-109 13l15 124q8 66 -3.5 132.5t-58.5 113.5zM459 1376l80 78q66 -68 84 -157t8 -179l-17 -125l-108 13l14 124q8 66 -3 132.5t-58 113.5z" />
<glyph />
<glyph unicode="&#xd;" horiz-adv-x="579" />
<glyph unicode=" "  horiz-adv-x="690" />
<glyph unicode="&#x09;" horiz-adv-x="690" />
<glyph unicode="&#xa0;" horiz-adv-x="690" />
<glyph unicode="!" horiz-adv-x="440" d="M164 285v1319h110v-1319h-110zM166 0v152h110v-152h-110z" />
<glyph unicode="&#x22;" horiz-adv-x="538" d="M61 1110v270h99v-270h-99zM317 1110v270h99v-270h-99z" />
<glyph unicode="#" horiz-adv-x="1478" d="M129 428l39 111h233l152 446h-231l36 111h234l117 338h116l-116 -338h313l115 336h116l-114 -336h245l-38 -111h-244l-154 -446h246l-39 -111h-246l-147 -428h-117l148 428h-314l-147 -428h-117l147 428h-233zM518 539h313l152 446h-311z" />
<glyph unicode="$" horiz-adv-x="1275" d="M86 186l80 78q47 -49 116.5 -70.5t135.5 -31.5q68 -10 143.5 -14.5t149 5t142.5 36t122 77.5q55 51 78.5 120t17.5 142q-8 72 -47 127.5t-111 75.5l-415 100q-74 16 -145.5 46t-127.5 84q-57 53 -79.5 124.5t-10.5 149.5q14 80 57.5 138.5t104.5 97t135 59t148 26.5v160 h110v-157q61 -2 121.5 -8.5t120.5 -20.5q53 -12 104 -33.5t90 -60.5l-77 -78q-20 20 -49 34.5t-60 23.5t-63.5 13.5t-59.5 8.5q-63 8 -138 12t-147.5 -6t-137 -39t-107.5 -86q-41 -53 -46 -126t35 -126q43 -55 111 -84t133 -43h2l420 -102q55 -16 98 -49t73 -74t46.5 -85 t20.5 -83q10 -102 -22 -196.5t-107 -166.5q-72 -70 -167.5 -102.5t-193.5 -40.5v-170h-110v168q-61 2 -129 7t-133.5 20.5t-126 44t-105.5 75.5z" />
<glyph unicode="%" horiz-adv-x="714" d="M32 891.5q-22 57.5 3 112.5q27 57 83 78.5t113 -5.5q55 -25 77 -82t-5 -112q-25 -55 -82 -77t-112 3t-77 82.5zM68 178l90 -41l489 1082l-88 38zM122 928q7 -19 25 -29q18 -8 37 -0.5t29 25.5q8 18 1 36.5t-26 28.5q-18 8 -36.5 1t-28.5 -25q-8 -18 -1 -37zM408.5 399.5 q-21.5 57.5 3.5 112.5q27 57 83 78.5t113 -4.5q55 -25 77 -82.5t-5 -112.5q-25 -55 -82 -76.5t-113 2.5q-55 25 -76.5 82.5zM499 436.5q7 -18.5 25 -28.5q18 -8 37 -1t29 25q8 18 1 36.5t-26 29.5q-18 8 -36.5 1t-28.5 -26q-8 -18 -1 -36.5z" />
<glyph unicode="&#x26;" horiz-adv-x="1425" d="M186 307q-16 86 3.5 169t62.5 157t107.5 137.5t138.5 112.5l-150 176q-66 88 -67.5 199.5t57.5 203.5q51 80 133 119t168 37t166 -43t129 -121q47 -78 52 -170t-42 -172q-25 -41 -57.5 -74.5t-70.5 -63.5t-79 -57.5t-78 -54.5l441 -520q25 57 34 118.5t9 123.5h110 q0 -86 -16 -171t-59 -163l180 -209l-146 -2l-100 119q-72 -78 -166 -118t-196 -50q-86 -10 -178.5 2t-172.5 49t-138 102.5t-75 163.5zM297 317q14 -72 63 -118.5t115 -71.5q72 -27 152 -31t155.5 10.5t139 46t104.5 74.5l14 15l-471 555q-61 -37 -115.5 -89.5t-93.5 -111.5 q-41 -59 -60 -133t-3 -146zM391 1250.5q2 -66.5 45 -124.5l152 -180q61 45 128.5 90t114.5 109q43 57 43 121.5t-32.5 119t-89 90t-125.5 33.5q-72 -2 -126.5 -39.5t-83 -95t-26.5 -124z" />
<glyph unicode="'" horiz-adv-x="344" d="M123 1110v270h98v-270h-98z" />
<glyph unicode="(" horiz-adv-x="915" d="M241 918.5q3 123.5 23 244.5q20 117 57 225.5t97 210.5q47 84 110.5 164t143.5 133l61 -92q-86 -59 -150.5 -151t-109.5 -185q-94 -199 -114.5 -423t16.5 -439q18 -102 51 -198.5t82 -186.5q41 -74 97.5 -147.5t127.5 -120.5l-61 -90q-92 59 -161 151t-118 189 q-57 109 -92 227.5t-49 241.5t-11 246.5z" />
<glyph unicode=")" horiz-adv-x="1019" d="M240 -45q86 59 150.5 151.5t109.5 184.5q94 199 114.5 423t-16.5 439q-18 102 -51 198.5t-82 186.5q-41 74 -97.5 147.5t-127.5 120.5l61 90q92 -59 160.5 -151t118.5 -189q57 -109 92 -227.5t49 -241t11 -247.5t-23 -244q-20 -117 -57.5 -225.5t-96.5 -210.5 q-47 -84 -110.5 -164t-143.5 -133z" />
<glyph unicode="*" horiz-adv-x="925" d="M92 1176l33 106l278 -90v291h111v-291l279 90l32 -106l-276 -91l170 -235l-88 -66l-172 238l-172 -238l-90 66l172 235z" />
<glyph unicode="+" horiz-adv-x="886" d="M123 612v99h270v270h99v-270h272v-99h-272v-272h-99v272h-270z" />
<glyph unicode="," horiz-adv-x="395" d="M113 92l80 78q66 -68 84 -157t8 -179l-17 -125l-108 12l14 125q8 66 -3 132.5t-58 113.5z" />
<glyph unicode="-" horiz-adv-x="956" d="M123 526v99h711v-99h-711z" />
<glyph unicode="." horiz-adv-x="393" d="M123 74q0 31 21.5 52t52.5 21t52 -21t21 -52t-21.5 -52.5t-51.5 -21.5q-31 0 -52.5 21.5t-21.5 52.5z" />
<glyph unicode="/" horiz-adv-x="770" d="M57 0l551 1604h117l-551 -1604h-117z" />
<glyph unicode="0" horiz-adv-x="1359" d="M164 373v860q0 74 33.5 144.5t87.5 119.5q55 49 123.5 79t144.5 41t151.5 7t145.5 -18q68 -14 129 -47t109.5 -80t77 -109.5t30.5 -136.5v-860v-2q-4 -131 -73.5 -213t-173 -125t-222.5 -50.5t-219 15.5q-66 14 -128.5 47t-110.5 82t-76.5 110.5t-28.5 135.5zM274 373 q0 -72 35 -123t87.5 -85t117 -52.5t123.5 -20.5q76 -4 155.5 7.5t144 43t106.5 88t42 142.5v860q-2 66 -39.5 123t-91.5 92q-61 39 -132.5 52t-141.5 13q-72 0 -142.5 -13t-129.5 -50q-55 -35 -94.5 -93.5t-39.5 -123.5v-860z" />
<glyph unicode="1" horiz-adv-x="450" d="M4 1407v111q47 0 97.5 29.5t88.5 56.5h97v-1604h-111v1464q-39 -23 -82 -40t-90 -17z" />
<glyph unicode="2" horiz-adv-x="1167" d="M124 209q-1 51 7 86q12 51 45 94t68 82q14 16 37.5 37.5t85 77t178.5 156t317 274.5q29 29 48.5 68.5t21.5 82.5v93q0 57 -27.5 101t-68.5 73.5t-93.5 47t-101.5 23.5q-53 6 -109.5 2t-108.5 -19t-99.5 -43t-81.5 -73l-86 70q47 57 108.5 95t131 58.5t143 23.5t145.5 -7 q68 -10 131.5 -39t113.5 -74t81.5 -105.5t31.5 -133.5v-93q0 -66 -28.5 -126t-75.5 -107l-496 -430q-47 -37 -90 -79t-78 -89q-20 -29 -29 -55.5t-9 -61.5v-108h808v-111h-919v115q0 43 -1 94z" />
<glyph unicode="3" horiz-adv-x="1150" d="M82 111l65 90q47 -37 105.5 -60.5t122 -36t127 -13.5t121.5 9q51 8 103 29t95 55.5t70 81.5t27 107v94q-2 63 -38 120.5t-89 92.5q-59 41 -131 53t-150 15h-107v110h107q57 0 120.5 12.5t118 42t90 76.5t38.5 119v154q-2 57 -29 101t-69 73.5t-93 47t-100 23.5 q-53 6 -109.5 2t-109 -19t-99.5 -43t-82 -73l-86 70q47 57 108.5 95t131.5 58.5t143.5 23.5t145.5 -7q68 -10 131 -39t113.5 -74t81 -105.5t32.5 -133.5v-154q-2 -96 -59.5 -178t-139.5 -123q49 -23 92.5 -57.5t76 -79.5t52 -96.5t19.5 -106.5v-94v-2q0 -74 -30.5 -137.5 t-81 -111.5t-115 -80t-131.5 -46q-150 -31 -304.5 0t-283.5 115z" />
<glyph unicode="4" horiz-adv-x="1247" d="M82 297v86l807 1239h86v-1214h149v-111h-149v-297h-107v297h-786zM207 408h661v983z" />
<glyph unicode="5" horiz-adv-x="1220" d="M123 102l59 95q49 -31 107.5 -53.5t120 -35t124 -14.5t117.5 6q51 8 104.5 29t95.5 55.5t68.5 81.5t26.5 107v243q-2 66 -38 122.5t-89 90.5q-61 41 -134 54.5t-144 13.5q-33 0 -73 -3t-77 -13.5t-67.5 -30t-44.5 -51.5h-111v805h850v-111h-739v-559q66 39 146.5 57.5 t163.5 15.5t161.5 -26t142.5 -68q70 -49 116 -128.5t48 -168.5v-245q0 -74 -30 -136.5t-79 -110.5t-112.5 -80t-130.5 -46q-150 -31 -297 0q-72 16 -147 39.5t-138 64.5z" />
<glyph unicode="6" horiz-adv-x="1318" d="M164 375v835q0 63 24.5 124t63.5 108q41 53 96 88t116.5 55.5t127 28.5t131.5 8q127 -2 250 -44t201 -148l-89 -66q-41 55 -98 87t-122.5 47t-134 15t-130.5 -8q-57 -8 -114.5 -30.5t-104.5 -59.5t-77 -88t-30 -117v-340q53 53 122 84t144.5 45.5t152.5 11.5t149 -18 q68 -14 131 -46t112.5 -80t80 -111.5t30.5 -137.5v-243v-2q-2 -72 -36 -142.5t-87 -119.5t-121.5 -79t-144.5 -41t-151.5 -8t-145.5 17q-68 14 -129.5 47t-109.5 81t-77.5 110.5t-29.5 136.5zM274 375q2 -72 36 -123t87.5 -85t117 -52.5t124.5 -20.5q74 -4 145.5 9.5t132 42 t103.5 73.5t57 109q4 10 4 18t2 14q0 8 2 15v243q-2 66 -39.5 123.5t-91.5 92.5q-59 39 -130.5 52t-143.5 13q-70 0 -141.5 -13.5t-130.5 -49.5q-53 -35 -93.5 -93.5t-40.5 -124.5v-243z" />
<glyph unicode="7" horiz-adv-x="1081" d="M41 1491v113h958v-109l-522 -1495h-117l519 1491h-838z" />
<glyph unicode="8" horiz-adv-x="1277" d="M123 375v94q0 55 19.5 106.5t51 95.5t73.5 78.5t91 57.5q-82 43 -138 124t-56 177v156q0 66 29.5 128t76.5 109q49 47 114 75t133.5 40t139 9t136.5 -17q61 -12 118.5 -42t101.5 -74t71.5 -101.5t29.5 -124.5v-164q-4 -94 -58.5 -173t-135.5 -122q98 -45 164.5 -135 t70.5 -201v-100q-2 -76 -38 -146.5t-93 -120.5q-55 -49 -124 -76.5t-142.5 -37.5t-149.5 -7t-143 19q-66 14 -125 46t-105.5 80t-76 110.5t-35.5 136.5zM233 375q0 -72 35 -123t88.5 -85t117 -52.5t124.5 -20.5q66 -4 135.5 5.5t131 36t107.5 72.5t64 120q4 10 4 19t2 15 q0 8 2 13v94q-2 70 -35.5 124t-86 89t-116 52.5t-124.5 17.5h-86q-66 2 -132.5 -18.5t-119.5 -61.5q-47 -35 -79 -89.5t-32 -113.5v-94zM274 1108q0 -33 12.5 -64.5t30.5 -58.5q47 -68 124 -99.5t155 -31.5h86q59 0 116.5 18.5t104.5 53.5q41 31 71 80t30 102v154 q-2 61 -37 114.5t-86 81.5q-59 35 -126 46.5t-132 8.5q-59 -2 -121 -14t-115 -47q-47 -31 -80 -81t-33 -109v-154z" />
<glyph unicode="9" horiz-adv-x="1318" d="M123 985v244v2q2 72 36 142.5t87 119.5t121.5 79t144.5 41t151.5 8t145.5 -17q68 -14 129 -47t109.5 -81.5t78 -110.5t29.5 -136v-836q0 -63 -24.5 -123.5t-63.5 -107.5q-41 -53 -96.5 -88t-116.5 -55.5t-128 -28.5t-130 -8q-127 2 -250 44t-201 148l88 66 q39 -55 97.5 -87t124 -47.5t134 -15.5t130.5 8q57 8 114.5 31t104.5 59.5t76.5 88t29.5 116.5v340q-53 -53 -121.5 -84t-144.5 -45t-153.5 -11t-147.5 17q-68 14 -131 46t-112.5 80t-80 111.5t-30.5 137.5zM233 985q2 -66 40 -123t92 -92q59 -39 130.5 -52t143.5 -13 q70 0 141.5 13t130.5 50q53 35 93 93.5t40 123.5v244q-2 72 -35.5 123t-87 84.5t-117 51t-124.5 21.5q-74 2 -145.5 -10t-132 -40.5t-103.5 -74t-57 -108.5q-4 -10 -6.5 -18.5t-2.5 -14.5q-2 -8 0 -14v-244z" />
<glyph unicode=":" horiz-adv-x="393" d="M123 326q0 31 21.5 52t52.5 21t52 -21t21 -52t-21.5 -52.5t-51.5 -21.5q-31 0 -52.5 21.5t-21.5 52.5zM123 934q0 31 21.5 52.5t52.5 21.5t52 -21.5t21 -52.5t-21.5 -52.5t-51.5 -21.5q-31 0 -52.5 21.5t-21.5 52.5z" />
<glyph unicode=";" horiz-adv-x="395" d="M111 408l79 77q66 -68 84.5 -156.5t8.5 -178.5l-17 -125l-108 12l14 125q8 66 -3 132t-58 114zM123 934q0 -31 21.5 -52.5t52.5 -21.5t52 21.5t21 52.5t-21.5 52.5t-51.5 21.5q-31 0 -52.5 -21.5t-21.5 -52.5z" />
<glyph unicode="&#x3c;" horiz-adv-x="768" d="M123 653l70 70l382 383l70 -70l-383 -383l383 -385l-70 -69l-382 385z" />
<glyph unicode="=" horiz-adv-x="886" d="M123 510v98h641v-98h-641zM123 713v98h641v-98h-641z" />
<glyph unicode="&#x3e;" horiz-adv-x="768" d="M123 268l383 385l-383 383l70 70l452 -453l-452 -454z" />
<glyph unicode="?" horiz-adv-x="966" d="M31 1188q0 76 26.5 146.5t72.5 127t109.5 96t137.5 56.5q76 14 149.5 3t139 -46t116.5 -90t82 -125q35 -80 35 -168q0 -66 -21.5 -124t-54 -111.5t-72.5 -103.5t-77 -97q-82 -104 -125 -226q-14 -39 -24.5 -82t-10.5 -86v-67h-111v67q0 68 17.5 136.5t47.5 132t68.5 123 t81.5 108.5q29 31 52.5 63.5t46.5 67.5q29 45 50 95.5t21 103.5q0 66 -25.5 125t-69.5 103t-103.5 69.5t-124.5 25.5q-66 0 -125 -25.5t-103 -69.5t-70 -103.5t-26 -124.5h-110zM403 0v152h111v-152h-111z" />
<glyph unicode="@" horiz-adv-x="1957" d="M188 739q-8 109 12.5 214.5t67.5 200.5t118 176t161 140q92 61 198.5 94t216 36.5t218 -23.5t204.5 -82q92 -53 166 -128t126.5 -164t80 -190.5t27.5 -207.5q2 -47 -3 -98.5t-20.5 -99.5t-41 -90t-64.5 -71t-88 -40t-101.5 -8t-101.5 20.5t-86 46.5q-47 -47 -108.5 -79 t-128 -42t-134 1t-127.5 50q-59 39 -91 98.5t-30 131.5q4 72 42 127t110 75l231 58q41 8 85 30.5t49 69.5q4 41 -23 69.5t-61 43.5q-45 16 -92.5 16t-92.5 -4q-29 -2 -68.5 -8t-62.5 -29l-80 76q29 29 70 45t87 24.5t94 8.5t89 -4q47 -6 92.5 -22.5t80 -45.5t57 -70 t22.5 -92v-256q0 -47 8.5 -96t42.5 -84q33 -31 81 -40t93 -7q51 2 83 32.5t50.5 73.5t23.5 93.5t3 91.5v2q0 123 -43 239.5t-125 208.5q-70 82 -160 136.5t-191 81t-206.5 21.5t-206.5 -44q-98 -37 -180 -102.5t-140.5 -150.5t-91 -184.5t-32.5 -205.5q0 -94 24.5 -184.5 t73.5 -172.5q78 -129 206 -215t280 -108q164 -25 320.5 27.5t273.5 168.5l77 -77q-90 -90 -201.5 -147.5t-232.5 -78t-245.5 -3t-237.5 72.5q-94 45 -173 114.5t-136.5 153.5t-93 182.5t-44.5 202.5zM770 598q4 -41 28.5 -72t61.5 -49q49 -25 102.5 -26.5t100.5 12.5 t86 37.5t61 52.5q-20 43 -26 89t-6 93v103q0 -10 -12.5 -19.5t-29 -17.5t-36 -15.5t-33.5 -9.5l-227 -55q-41 -12 -57.5 -47t-12.5 -76z" />
<glyph unicode="A" horiz-adv-x="1341" d="M41 0l569 1604h119l571 -1604h-116l-217 608h-592l-217 -608h-117zM414 719h512l-256 741z" />
<glyph unicode="B" horiz-adv-x="1280" d="M164 0v1604h651q63 0 117.5 -27t94.5 -71t66.5 -100t36.5 -114q11 -64 11 -131q1 -63 -13 -125q-14 -64 -44.5 -120t-82.5 -97q76 -39 121.5 -108.5t61.5 -151.5q13 -66 13 -137q0 -28 -2 -56q-7 -100 -50 -186q-39 -78 -114 -129t-161 -51h-706zM274 109h594q43 2 78 19 t60.5 46t43 65.5t25.5 73.5q12 56 12 116q0 13 -1 25q-3 74 -27 140q-23 59 -74 103t-117 46h-594v-634zM274 858h541q61 2 102 34t66 78t36 101t11 105q0 49 -11 104t-36 102.5t-67 78t-103 32.5h-539v-635z" />
<glyph unicode="C" horiz-adv-x="1257" d="M164 395v817q0 63 25.5 126t66.5 112q43 51 98.5 85t116.5 54.5t127 27.5q51 5 102 5h29q61 -2 125 -12.5t122 -33t109.5 -58t90.5 -88.5l-91 -66q-37 51 -90 82t-113 46t-124 18q-27 1 -54 1q-35 0 -67 -2q-59 -6 -115.5 -22.5t-104.5 -46t-84 -74.5t-50 -106 q-6 -23 -7.5 -35.5t-1.5 -14.5v-815q2 -70 33 -122t80 -89t110.5 -58.5t120.5 -27.5q44 -4 92 -4h33q66 2 129.5 17.5t119 46t93.5 84.5l89 -66q-43 -59 -103.5 -99t-132.5 -63q-61 -18 -127 -26q-53 -6 -107 -6h-26q-68 2 -133.5 15t-122.5 38q-53 23 -100.5 59.5t-82 83.5 t-55 102.5t-20.5 114.5z" />
<glyph unicode="D" horiz-adv-x="1290" d="M164 0v1604h471q70 0 141.5 -12.5t136 -40t118.5 -72.5t89 -111q20 -37 33.5 -81t13.5 -87v-797q0 -88 -46 -168.5t-115 -132.5q-80 -59 -176.5 -80.5t-194.5 -21.5h-471zM274 111h361q55 0 111.5 7t107.5 26.5t94 53.5t72 85q16 27 26.5 58.5t10.5 61.5v797 q-2 68 -40 127t-91 96q-66 41 -140.5 55.5t-150.5 14.5h-361v-1382z" />
<glyph unicode="E" horiz-adv-x="1224" d="M164 0v1604h979v-111h-869v-635h820v-110h-820v-637h869v-111h-979z" />
<glyph unicode="F" horiz-adv-x="1224" d="M164 0v1604h979v-111h-869v-635h820v-110h-820v-748h-110z" />
<glyph unicode="G" horiz-adv-x="1333" d="M123 395v817q0 66 27.5 129.5t68.5 110.5q43 51 99.5 85t118 52.5t127 25.5t130.5 7q63 0 129 -9t126.5 -31.5t112.5 -59.5t93 -92l-90 -66q-41 55 -99.5 87t-126 46t-137 14t-133.5 -6q-59 -6 -118.5 -27.5t-107.5 -58.5t-79 -89t-31 -120v-815q2 -63 35 -120.5 t80 -94.5q47 -35 103.5 -55.5t116.5 -27.5q43 -5 86 -5q18 0 36 1q62 3 117 13q53 10 105.5 34t93.5 61t67.5 86t26.5 108v318h-434v110h544v-428q0 -78 -36.5 -152.5t-94.5 -125.5q-57 -53 -131 -84t-154 -43q-58 -10 -117 -10q-22 0 -43 2q-81 4 -155 20q-68 16 -132 51 t-113.5 85t-80 115.5t-30.5 141.5z" />
<glyph unicode="H" horiz-adv-x="1359" d="M164 0v1604h110v-746h811v746h111v-1604h-111v748h-811v-748h-110z" />
<glyph unicode="I" horiz-adv-x="438" d="M164 0v1604h110v-1604h-110z" />
<glyph unicode="J" horiz-adv-x="737" d="M41 -18v110q72 0 146.5 13.5t138.5 52.5q55 35 96 96t41 131v1219h110v-1219q0 -88 -46 -169t-115 -132q-80 -59 -176.5 -80.5t-194.5 -21.5z" />
<glyph unicode="K" horiz-adv-x="1290" d="M164 0v1604h110v-816l818 816h157l-692 -691l682 -913h-139l-621 836l-205 -203v-633h-110z" />
<glyph unicode="L" horiz-adv-x="1183" d="M164 0v1604h110v-1493h869v-111h-979z" />
<glyph unicode="M" horiz-adv-x="1581" d="M164 0v1604h115l512 -1442l512 1442h114v-1604h-110v1288l-465 -1288h-103l-465 1288v-1288h-110z" />
<glyph unicode="N" horiz-adv-x="1359" d="M164 0v1602h119l802 -1397v1397h111v-1602h-121l-801 1395v-1395h-110z" />
<glyph unicode="O" horiz-adv-x="1415" d="M164 395v819q0 66 27.5 130.5t70.5 113.5q45 53 104.5 87t125.5 53q66 18 134 23q38 3 75 3q30 0 61 -2q66 -4 130 -18.5t122.5 -43t107.5 -72t82 -104.5q20 -39 33.5 -83t13.5 -87v-819q0 -78 -36.5 -152.5t-94.5 -125.5q-57 -53 -131 -84q-73 -31 -153 -43 q-58 -9 -118 -10q-21 0 -43 2q-81 4 -155 20q-68 16 -132 51t-114.5 85t-80 115.5t-29.5 141.5zM274 395q2 -72 34 -124t83 -89t112.5 -57.5t123.5 -26.5q42 -4 87 -4q22 0 46 1q70 3 134 21.5t119.5 55.5t90.5 98q16 29 26.5 60.5t10.5 64.5v817q-2 63 -35 121t-80 94 q-47 35 -104 55q-58 20 -118 28q-41 5 -83 6q-19 0 -38 -2q-60 -4 -116 -13q-53 -10 -105 -33.5t-93 -60.5t-68 -86t-27 -109v-817z" />
<glyph unicode="P" horiz-adv-x="1226" d="M164 0v1604h651q92 0 169 -58.5t114 -142.5q43 -98 45 -215q0 -6 1 -12q0 -110 -36 -203q-16 -45 -45 -86t-68 -72t-84 -49t-96 -18h-541v-748h-110zM274 858h541q86 4 137.5 66.5t67.5 138.5q12 56 12 116q0 13 -1 25q-3 74 -27 139q-23 59 -73 103.5t-118 46.5h-539 v-635z" />
<glyph unicode="Q" horiz-adv-x="1415" d="M164 393v817q0 66 27.5 130.5t70.5 113.5q45 53 104.5 87t125 52.5t134.5 23.5q38 3 75 3q31 0 61 -2q66 -4 130 -18.5t122.5 -43t107.5 -71.5t82 -105q-4 4 -4 7.5t4 -7.5q10 -16 7 -12t-7 12q20 -39 33.5 -83t13.5 -87v-817q0 -78 -36.5 -151.5t-94.5 -126.5 q-4 -2 -10 -9q16 -4 30.5 -5t30.5 -3q20 -4 40 -4h40v-112q-47 0 -94 5t-92 15q-20 6 -40.5 12t-41.5 15q-109 -43 -231 -47q-19 -1 -38 -1q-102 0 -194 21q-68 16 -132 51t-113.5 85t-80 114.5t-30.5 140.5zM274 393q2 -70 34 -123t83 -89t112.5 -56.5t123.5 -26.5 q40 -4 83 -4h28q59 2 116 12q-63 53 -102 124t-43 157h110q4 -84 50 -141.5t114 -91.5q37 20 67.5 47.5t53.5 68.5q16 29 26.5 60.5t10.5 62.5v815q-2 63 -35 120.5t-80 94.5q-47 35 -104.5 55.5t-117.5 27.5q-43 5 -85 5q-18 0 -36 -1q-60 -3 -116 -13q-53 -10 -105 -33.5 t-93 -60.5t-68 -86t-27 -109v-815z" />
<glyph unicode="R" horiz-adv-x="1271" d="M164 0v1604h651q61 0 114.5 -26t93.5 -68t66.5 -95t38.5 -110q12 -59 14 -123v-14q0 -58 -12 -114q-12 -64 -38.5 -119.5t-71.5 -98.5q-35 -31 -68 -50l279 -786h-117l-266 750q-6 0 -20.5 -1t-70 -1h-168h-315.5v-748h-110zM274 858h539q61 2 103 34t67 78t36 101 t11 105q0 49 -11 104t-36 102.5t-67 78t-103 32.5h-539v-635z" />
<glyph unicode="S" horiz-adv-x="1290" d="M123 143l84 72q45 -53 112.5 -76.5t133.5 -34.5q67 -10 141 -13q13 -1 27 -1q59 0 117 12q70 14 133 45t108 91q39 50 61 124q17 60 17 121q0 14 -1 28q-5 75 -41 136.5t-110 83.5l-393 111q-49 12 -96 31.5t-90 47t-77 65.5t-54 85q-30 67 -30 141q0 13 1 26 q6 89 45 163q41 78 113.5 127t158.5 71q82 22 170 22h7q92 -1 180 -13q72 -12 148.5 -38t125.5 -85l-84 -72q-41 47 -110.5 64.5t-128.5 23.5q-61 8 -133 8t-139.5 -15t-124 -51t-89.5 -100q-30 -61 -30 -133q0 -68 36 -125q39 -57 101.5 -88.5t128.5 -48.5l395 -110h2 q43 -14 79 -42t61.5 -61t43 -65.5t25.5 -57.5q20 -68 20 -140q1 -19 -1 -37q-6 -91 -42 -171q-33 -74 -85 -126t-117.5 -87t-139 -52t-149.5 -17q-66 0 -136.5 5t-139 22.5t-129 49t-105.5 84.5z" />
<glyph unicode="T" horiz-adv-x="1085" d="M82 1493v111h922v-111h-406v-1493h-111v1493h-405z" />
<glyph unicode="U" horiz-adv-x="1415" d="M164 393v1211h110v-1211q2 -63 35 -120.5t80 -94.5q47 -35 105 -56q58 -20 118 -27q42 -5 84 -5l36 1q60 3 116 13q53 10 105.5 34t94.5 61t67.5 86t25.5 108v1211h110v-1211q0 -78 -36.5 -152.5t-94.5 -125.5q-57 -53 -131 -84q-73 -31 -153 -43q-58 -9 -118 -10 q-21 0 -43 2q-81 4 -155 20q-68 16 -132 51t-114.5 85t-80 115.5t-29.5 141.5z" />
<glyph unicode="V" horiz-adv-x="1341" d="M41 1604h117l514 -1442l512 1442h116l-577 -1604h-102z" />
<glyph unicode="W" horiz-adv-x="1931" d="M41 1602h115l376 -1379l377 1379h113l377 -1379l377 1379h114l-438 -1604h-106l-381 1411l-379 -1411h-107z" />
<glyph unicode="X" horiz-adv-x="1245" d="M41 0l516 801l-516 803h131l451 -721l450 721h131l-516 -803l516 -801h-131l-450 721l-451 -721h-131z" />
<glyph unicode="Y" horiz-adv-x="1247" d="M41 1604h131l449 -719l452 719h133l-530 -818v-786h-111v786z" />
<glyph unicode="Z" horiz-adv-x="1290" d="M82 0v86l973 1407h-973v111h1124v-86l-973 -1407h975v-111h-1126z" />
<glyph unicode="[" horiz-adv-x="528" d="M78 -186v1849h362v-100h-252v-1649h254v-100h-364z" />
<glyph unicode="\" horiz-adv-x="897" d="M57 1604h117l551 -1604h-117z" />
<glyph unicode="]" horiz-adv-x="528" d="M78 -86h254v1649h-252v100h362v-1849h-364v100z" />
<glyph unicode="^" horiz-adv-x="948" d="M20 461l383 383l70 69l70 -69l385 -383l-70 -70l-385 383l-383 -383z" />
<glyph unicode="_" horiz-adv-x="903" d="M0 -49h903v-98h-903v98z" />
<glyph unicode="`" horiz-adv-x="507" d="M80 1337l2 111q94 -2 171 -51t132 -121l76 -100l-84 -68l-80 98q-41 51 -95.5 91t-121.5 40z" />
<glyph unicode="a" horiz-adv-x="980" d="M82 326q2 58 23.5 106.5t61.5 86.5t97 54l297 72q53 12 109.5 39t72.5 84q4 17 4 34q-1 44 -27 78q-36 48 -91 68q-57 23 -121 25q-16 1 -32 1q-47 0 -93 -5q-41 -4 -94 -13.5t-84 -42.5l-78 78q35 37 85 53.5t99 26.5q82 12 161 13q35 0 69 -3q59 -6 115.5 -26.5 t101.5 -55t72.5 -84t27.5 -114.5v-604q0 -18 -4 -38t-18 -36q-78 -86 -180 -119q-77 -25 -160 -25q-28 0 -56 3q-55 4 -108 20t-99.5 45t-81 71t-53.5 97q-16 48 -16 99v12zM193 314.5q0 -33.5 10 -64.5q27 -78 95 -114t144 -44q17 -2 35 -2q22 0 46 3q42 5 79 16.5 t66.5 24.5t44.5 26q10 8 18 15t17 15v433q-33 -33 -76 -53.5t-86 -30.5l-293 -72q-35 -10 -57.5 -33.5t-32.5 -54.5t-10 -64.5z" />
<glyph unicode="b" horiz-adv-x="1034" d="M164 0v1604h110v-615q70 53 157 78q64 18 127 18q23 0 46 -2q84 -10 159 -47.5t116 -115.5q14 -29 23 -60t9 -61v-533q0 -51 -19.5 -95t-53 -80t-76.5 -60.5t-88 -36.5q-53 -13 -109 -13q-48 -1 -99 9q-110 22 -192 86v-76h-110zM274 266q2 -41 21.5 -71.5t48.5 -52 t65.5 -34t71.5 -16.5q31 -3 65 -3h17q43 1 84 12.5t74.5 34t56.5 59.5q18 33 23 71v533q-2 49 -26.5 82.5t-62.5 54t-83 30t-86 9.5t-88 -8.5t-86 -27.5t-66 -54t-29 -86v-533z" />
<glyph unicode="c" horiz-adv-x="897" d="M123 266v533q0 57 23.5 105t63.5 84t89 59.5t102 31.5q49 7 101 7h12q58 -1 114 -15t104 -43t83 -76l-88 -65q-23 31 -54.5 49t-67.5 28q-35 9 -73 11q-19 1 -37.5 1t-35.5 -1q-72 -6 -136.5 -39t-84.5 -109l-5 -20v-8v-533q2 -39 20.5 -68.5t46.5 -51t62.5 -35 t69.5 -17.5q37 -4 78 -4t81 8t75.5 27.5t60.5 52.5l88 -65q-35 -49 -85 -78t-106.5 -43.5t-117 -14.5t-115.5 11q-51 8 -99 32.5t-86 60.5t-60.5 83t-22.5 102z" />
<glyph unicode="d" horiz-adv-x="1034" d="M123 266v533q0 76 33.5 131t89.5 91q56 37 124 53q54 13 109 12h31q72 -4 137.5 -29t112.5 -68v615h110v-1604h-110v76q-51 -43 -118 -66q-68 -24 -138 -28q-15 -1 -30 -1q-54 1 -108 13q-68 16 -122 52t-87.5 90t-33.5 130zM233 268q2 -59 35 -98t83 -60q49 -20 109 -23 q12 -1 23 0q47 -1 93 9q56 12 99.5 37t61.5 62q8 14 15.5 34.5t7.5 38.5v531q-2 61 -41 101t-97.5 60.5t-125 20.5t-125 -20.5t-97 -60.5t-41.5 -101v-531z" />
<glyph unicode="e" horiz-adv-x="993" d="M123 270v527q0 86 43 146.5t110 94.5q68 36 151 46q34 4 67 4q49 0 96 -10q80 -16 146.5 -55t101.5 -105q14 -29 23 -60t9 -61v-322l-637 -4v-201q2 -55 36 -93t84 -61q51 -22 113 -28q25 -2 49 -2q37 0 71 5q58 9 108.5 31.5t77.5 59.5l88 -65q-41 -55 -111.5 -89 t-152.5 -46q-39 -6 -79 -5q-43 1 -87 7q-84 12 -151.5 48t-111.5 95t-44 143zM233 582l527 4v211q-2 61 -41 101t-97.5 60.5t-125 20.5t-125 -20.5t-97 -60.5t-41.5 -101v-215z" />
<glyph unicode="f" horiz-adv-x="628" d="M82 954v111h172v250q0 74 35 129t89 90t120.5 52.5t130.5 17.5v-111q-41 0 -87 -9t-84 -29.5t-64.5 -55.5t-28.5 -84v-250h170v-111h-170v-954h-111v954h-172z" />
<glyph unicode="g" horiz-adv-x="993" d="M123 266v533q0 74 33.5 130t89 92t124.5 51q57 12 116 12h24q72 -3 137.5 -27.5t112.5 -67.5v76h110v-1139q0 -84 -44 -144.5t-111.5 -96t-152.5 -47.5q-44 -7 -88 -7q-40 0 -79 5q-82 12 -152.5 45.5t-111.5 91.5l90 65q27 -37 76 -60.5t109 -31.5q34 -5 68 -5 q26 0 52 3q62 6 113 28.5t85 60.5t36 93v150q-51 -43 -118 -66.5t-138 -27.5q-15 -2 -31 -2q-54 0 -107 12q-69 16 -122.5 52t-87 91t-33.5 131zM233 266q2 -59 36 -98t83 -58.5t110 -22.5q11 -1 23 -1q48 0 93 10q55 13 98 37.5t61 59.5q8 16 15.5 35.5t7.5 37.5v531 q-2 61 -41 101t-97.5 60.5t-125 20.5t-125 -20.5t-97 -60.5t-41.5 -101v-531z" />
<glyph unicode="h" horiz-adv-x="1034" d="M164 0v1604h110v-613q49 43 115 67q67 23 137 26q12 0 23 1q57 0 115 -13q68 -15 124 -50t89.5 -90t33.5 -131v-801h-110v801q-2 61 -41 101t-97.5 60.5t-125 20.5t-125 -20.5t-97.5 -60.5t-41 -101v-801h-110z" />
<glyph unicode="i" horiz-adv-x="356" d="M123 0v1065h110v-1065h-110zM123 1290v162h110v-162h-110z" />
<glyph unicode="j" horiz-adv-x="518" d="M20 -258q41 0 87.5 9t85 29.5t64.5 55.5t28 84v1145h110v-1145q0 -74 -34.5 -129t-89 -90t-121 -52.5t-130.5 -17.5v111zM285 1290v162h110v-162h-110z" />
<glyph unicode="k" horiz-adv-x="970" d="M164 0v1604h110v-1035l500 496h156l-461 -457l453 -608h-138l-395 528l-115 -114v-414h-110z" />
<glyph unicode="l" horiz-adv-x="565" d="M150 270v1334h110v-1334q0 -31 13.5 -55.5t31 -43.5t35.5 -32.5t31 -19.5q37 -16 75.5 -21.5t77.5 -5.5v-110q-63 0 -129.5 17t-121 52t-89 90.5t-34.5 128.5z" />
<glyph unicode="m" horiz-adv-x="1343" d="M123 0v1065h110v-70q55 51 117 73q53 19 105 19q8 -1 16 -1q59 -4 111.5 -29t89.5 -68q35 41 89 65q53 24 115 30q22 2 45 2q39 0 77 -8q60 -12 109.5 -41t81.5 -76.5t32 -110.5v-850h-111v848q-2 43 -30.5 71.5t-70.5 44t-92.5 15.5t-92.5 -14.5t-70.5 -44t-30.5 -72.5 v-848h-102v848q-2 43 -31 71.5t-71 44t-91 15.5t-92 -14.5t-71.5 -44t-31.5 -72.5v-848h-110z" />
<glyph unicode="n" horiz-adv-x="993" d="M123 2v1063h110v-78q47 41 107 65q60 25 126 30q20 2 41 2q45 0 90 -8q65 -11 119 -40.5t94 -78t54 -111.5q4 -20 5 -32.5t1 -16.5v-797h-110v797q-2 61 -41 101t-97.5 60.5t-125 20.5t-125 -20.5t-97 -60.5t-41.5 -101v-795h-110z" />
<glyph unicode="o" horiz-adv-x="993" d="M123 264v533q0 86 44 146.5t111 94.5q68 36 150 46q33 4 66 4q48 0 96 -10q80 -16 146.5 -55t101.5 -105q14 -29 23 -60t9 -61v-533q0 -96 -55 -160.5t-138 -97.5t-180.5 -33t-180.5 33t-138 97.5t-55 160.5zM233 266q2 -59 35 -98t83 -60q51 -20 111 -23q12 -1 24 -1 q48 0 92 10q56 12 98.5 37t60.5 62q8 14 15.5 34.5t7.5 36.5v533q-2 61 -41 101t-97.5 60.5t-125 20.5t-125 -20.5t-97 -60.5t-41.5 -101v-531z" />
<glyph unicode="p" horiz-adv-x="993" d="M123 -369v1434h110v-76q63 55 151 79q62 17 125 17q25 0 50 -3q88 -9 163 -49.5t116 -114.5q14 -27 23 -58t9 -61v-533q0 -76 -33.5 -131t-88 -92t-124.5 -53q-54 -13 -109 -13q-15 0 -31 1q-70 4 -135.5 28.5t-115.5 69.5v-445h-110zM233 266q2 -59 42 -100t98.5 -61.5 t126 -20.5t125 19.5t96.5 60.5t39 102v531v2q-2 59 -41 100t-97.5 60.5t-125.5 20.5h-6q-63 0 -118 -20q-59 -20 -97.5 -61t-41.5 -100v-533z" />
<glyph unicode="q" horiz-adv-x="993" d="M123 266v533q0 74 33.5 129t88 91t123.5 52q56 13 113 13q14 0 28 -1q71 -4 136.5 -27.5t114.5 -66.5v76h110v-1434h-110v445q-47 -45 -113.5 -68.5t-137.5 -27.5q-15 -1 -30 -1q-56 0 -109 13q-69 16 -124.5 52t-89 91t-33.5 131zM233 266q2 -55 34 -93t80 -59.5 t107 -26.5q19 -2 38 -2q38 0 76 7q55 10 100.5 35t68.5 66q8 16 15.5 35.5t7.5 37.5v533q-2 59 -41 100t-97.5 60.5t-125.5 20.5h-6q-63 0 -118 -20q-59 -20 -97.5 -61t-41.5 -100v-533z" />
<glyph unicode="r" horiz-adv-x="579" d="M123 -2v1067h106v-100q66 55 146 87.5t164 32.5v-110q-47 0 -100.5 -17.5t-99.5 -44t-77 -59.5t-31 -63v-791z" />
<glyph unicode="s" horiz-adv-x="841" d="M61 86l84 72q31 -37 82.5 -51.5t96.5 -18.5q37 -4 75 -4q19 0 39 1q58 3 109 26q53 25 85 71.5t38 104.5q2 25 -1 53.5t-12.5 54t-27 45t-45.5 29.5l-256 72q-76 18 -142.5 63t-89.5 123q-12 38 -12 77q0 36 10 72q21 78 78 130q61 54 142 70q61 12 122 12q20 0 39 -1 q33 -2 71 -6t73.5 -14t67.5 -28.5t56 -45.5l-84 -71q-14 16 -35.5 26t-46 16.5t-49 8.5t-45.5 4q-24 2 -50 2q-31 0 -63 -3q-58 -5 -106 -38q-42 -29 -60 -77q-11 -28 -10 -56q0 -20 5 -39q14 -53 61 -81t94 -38l262 -74h2q41 -12 71 -38.5t48.5 -58.5t27.5 -64.5t13 -59.5 q2 -19 2 -36q0 -48 -12 -92q-16 -60 -51 -108t-87 -83t-118 -49q-56 -11 -114 -11q-7 1 -15 1q-66 2 -127 14q-53 10 -106.5 32.5t-88.5 65.5z" />
<glyph unicode="t" horiz-adv-x="618" d="M41 954v111h170v387h111v-387h172v-111h-172v-684q2 -49 34.5 -90t75.5 -61q68 -27 154 -27v-110q-63 0 -130 17t-121 52t-89 90.5t-35 128.5v684h-170z" />
<glyph unicode="u" horiz-adv-x="993" d="M123 268v797h110v-797q2 -61 41 -101t97.5 -60.5t125 -20.5t125 20.5t97.5 60.5t41 101v797h110v-1065h-110v78q-47 -45 -113.5 -69.5t-137.5 -28.5q-15 -1 -30 -1q-55 1 -109 13q-68 16 -124 53t-89.5 92.5t-33.5 130.5z" />
<glyph unicode="v" horiz-adv-x="995" d="M61 1065h117l320 -903l319 903h117l-385 -1065h-105z" />
<glyph unicode="w" horiz-adv-x="1429" d="M61 1065h113l242 -870l239 870h117l242 -870l239 870h115l-303 -1065h-107l-243 885l-246 -885h-107z" />
<glyph unicode="x" horiz-adv-x="1011" d="M61 0l377 535l-377 532h138l307 -457l307 457h135l-375 -532l377 -535h-133l-311 459l-309 -459h-136z" />
<glyph unicode="y" horiz-adv-x="995" d="M61 1065h117l320 -905l319 905h117l-516 -1434h-119l139 385z" />
<glyph unicode="z" horiz-adv-x="872" d="M82 0v123l575 831h-565v111h688v-127l-573 -827h584v-111h-709z" />
<glyph unicode="{" horiz-adv-x="796" d="M123 862l219 219v138v239h2q0 94 36 176t97.5 143.5t143 97.5t176.5 36v-99q-74 0 -138.5 -27.5t-112.5 -75.5t-76 -112.5t-28 -138.5h-2v-344v-74l-47 -47l-51 -51l-80 -80l80 -80l51 -51l47 -47v-74v-346h2q0 -74 28 -138.5t76 -112.5t111.5 -75.5t137.5 -27.5h2v-98 q-94 0 -176 35.5t-143.5 97t-97.5 143.5t-36 176h-2v240v139z" />
<glyph unicode="|" horiz-adv-x="344" d="M123 -84v1896h98v-1896h-98z" />
<glyph unicode="}" horiz-adv-x="796" d="M0 -88q74 0 138.5 27.5t112.5 75.5t75.5 113t27.5 138h2v344v74l47 47l52 51l80 80l-80 80l-52 51l-47 47v74v346h-2q0 74 -27.5 138.5t-75.5 112.5t-112.5 76t-138.5 28v-3v99v2q94 0 176 -36t143.5 -97.5t97.5 -143.5t36 -176h2v-241v-138l219 -219l-219 -221v-137 v-238h-2q0 -94 -36 -177t-97.5 -144.5t-143.5 -97t-176 -35.5v98v2z" />
<glyph unicode="~" horiz-adv-x="1091" d="M41 420q0 61 23.5 116.5t64.5 95.5t95.5 63.5t115.5 23.5q63 0 117.5 -23.5t95.5 -64.5l57 -53q55 -59 142 -60q84 0 142 58.5t58 142.5h99q0 -61 -23.5 -116.5t-64.5 -95.5t-95.5 -63.5t-115.5 -23.5q-63 0 -117.5 23.5t-95.5 64.5l-58 53q-55 59 -141 60 q-84 0 -142.5 -58.5t-58.5 -142.5h-98z" />
<glyph horiz-adv-x="1028" d="M49 1200q33 33 77 53.5t91 31.5t96 16.5t95 7.5q51 2 102 -1t101.5 -13.5t96.5 -30t87 -52.5q12 23 16 47.5t4 49.5h111q0 -47 -12.5 -94.5t-43.5 -86.5q25 -37 40.5 -80.5t15.5 -89.5v-958h-111v369q-4 68 -38 113.5t-84 73.5t-111.5 40t-116.5 12v111q94 0 186 -24.5 t164 -90.5v354q-2 57 -29.5 100.5t-69.5 72t-94.5 45t-101.5 20.5q-53 4 -110.5 2t-110.5 -10q-43 -6 -91 -19.5t-81 -46.5z" />
<glyph unicode="&#x20ac;" horiz-adv-x="1028" d="M49 1200q33 33 77 53.5t91 31.5t96 16.5t95 7.5q51 2 102 -1t101.5 -13.5t96.5 -30t87 -52.5q12 23 16 47.5t4 49.5h111q0 -47 -12.5 -94.5t-43.5 -86.5q25 -37 40.5 -80.5t15.5 -89.5v-958h-111v369q-4 68 -38 113.5t-84 73.5t-111.5 40t-116.5 12v111q94 0 186 -24.5 t164 -90.5v354q-2 57 -29.5 100.5t-69.5 72t-94.5 45t-101.5 20.5q-53 4 -110.5 2t-110.5 -10q-43 -6 -91 -19.5t-81 -46.5z" />
<glyph d="M-1139 1454v111h811v-111h-811z" />
<glyph d="M-1139 1454v111h609q41 2 66.5 26.5t25.5 65.5v166h110v-166q0 -86 -58 -143.5t-144 -59.5h-609z" />
<glyph unicode="&#x201a;" d="M-1139 1454v111h609q41 2 66.5 26.5t25.5 65.5v166h110v-166q0 -86 -58 -143.5t-144 -59.5h-609z" />
<glyph d="M-1141 1454v111h461q-27 61 -8.5 118.5t61.5 94.5t103.5 44t115.5 -30t70.5 -94.5t-0.5 -111.5t-61 -93t-111 -39h-631zM-599 1627.5q3 -25.5 20.5 -47t48.5 -28.5q31 -8 60.5 7.5t41.5 44.5t4 56.5t-27.5 45.5t-47 22.5t-54.5 -10.5q-27 -14 -38 -39.5t-8 -51z" />
<glyph d="M-1139 1454v111h381q41 2 66.5 26.5t25.5 65.5v166h107v-166q0 -51 -21 -92h50q41 2 66.5 26.5t25.5 65.5v166h110v-166q0 -86 -58 -143.5t-144 -59.5h-609z" />
<glyph unicode="&#x201e;" d="M-1139 1454v111h381q41 2 66.5 26.5t25.5 65.5v166h107v-166q0 -51 -21 -92h50q41 2 66.5 26.5t25.5 65.5v166h110v-166q0 -86 -58 -143.5t-144 -59.5h-609z" />
<glyph unicode="&#x85;" horiz-adv-x="983" d="M123 74q0 31 21.5 52t52.5 21t52 -21t21 -52t-21.5 -52.5t-51.5 -21.5q-31 0 -52.5 21.5t-21.5 52.5zM418 74q0 31 21.5 52t52.5 21t52 -21t21 -52t-21.5 -52.5t-51.5 -21.5q-31 0 -52.5 21.5t-21.5 52.5zM713 74q0 31 21.5 52t51.5 21q31 0 52.5 -21t21.5 -52 t-21.5 -52.5t-52.5 -21.5t-52 21.5t-21 52.5z" />
<glyph d="M-422 1454v371h94v-371h-94z" />
<glyph d="M-864 1712v94h190q18 0 32.5 -13t14.5 -34v-110q0 -83 82 -99q10 -2 13.5 -2h5.5h444v-94h-444q-84 2 -139.5 57.5t-55.5 137.5v63h-143z" />
<glyph d="M-1063 1497q-6 51 0 105.5t29 101.5q12 27 30.5 49.5t45.5 36.5q23 12 59.5 20.5t58.5 -14.5l82 -82l78 78q16 14 39 15t46.5 -7t45 -21.5t33.5 -25.5q33 -31 48.5 -74t21.5 -86q2 -14 2 -24t2 -21h196v-94h-243q-20 0 -34 14.5t-14 32.5q0 37 -3 72t-13 64.5t-28.5 49 t-45.5 23.5l-98 -96q-14 -14 -33.5 -14.5t-34.5 14.5l-98 100q-35 -6 -53.5 -35.5t-24.5 -67.5t-4 -77t8 -66l-92 -18q-2 12 -3 23.5t-3 23.5z" />
<glyph unicode="&#x2c6;" d="M-1063 1497q-6 51 0 105.5t29 101.5q12 27 30.5 49.5t45.5 36.5q23 12 59.5 20.5t58.5 -14.5l82 -82l78 78q16 14 39 15t46.5 -7t45 -21.5t33.5 -25.5q33 -31 48.5 -74t21.5 -86q2 -14 2 -24t2 -21h196v-94h-243q-20 0 -34 14.5t-14 32.5q0 37 -3 72t-13 64.5t-28.5 49 t-45.5 23.5l-98 -96q-14 -14 -33.5 -14.5t-34.5 14.5l-98 100q-35 -6 -53.5 -35.5t-24.5 -67.5t-4 -77t8 -66l-92 -18q-2 12 -3 23.5t-3 23.5z" />
<glyph d="M-612 1593v95h137v137h94v-137h139v-95h-139v-139h-94v139h-137z" />
<glyph d="M-705 1454v166q0 59 32 109.5t85 74.5q29 14 58.5 16.5t60.5 2.5h422v-111h-455q-12 0 -20 -2q-49 -10 -60.5 -46t-11.5 -79v-131h-111z" />
<glyph d="M-258 1454v371h94v-371h-94z" />
<glyph unicode="&#x2039;" d="M-258 1454v371h94v-371h-94z" />
<glyph d="M-678 1712v94h191q18 0 32.5 -13t14.5 -34v-110q0 -83 82 -99q10 -2 13 -2h5h444v-94h-444q-84 2 -139.5 57.5t-55.5 137.5v63h-143z" />
<glyph unicode="&#x152;" d="M-678 1712v94h191q18 0 32.5 -13t14.5 -34v-110q0 -83 82 -99q10 -2 13 -2h5h444v-94h-444q-84 2 -139.5 57.5t-55.5 137.5v63h-143z" />
<glyph d="M-733 1497q-6 51 0 105.5t28 101.5q12 27 31 49.5t45 36.5q23 12 60 20.5t59 -14.5l82 -82l78 78q16 14 38.5 15t46 -7t45 -21.5t34.5 -25.5q33 -31 48 -74t21 -86q2 -14 2 -24t2 -21h197v-94h-244q-20 0 -33.5 14.5t-13.5 32.5q0 37 -3 72t-13 64.5t-28.5 49t-45.5 23.5 l-98 -96q-14 -14 -34 -14.5t-34 14.5l-98 100q-35 -6 -53.5 -35.5t-24.5 -67.5t-4 -77t8 -66l-92 -18q-2 12 -3 23.5t-3 23.5z" />
<glyph d="M-395 1593v95h137v137h94v-137h139v-95h-139v-139h-94v139h-137z" />
<glyph d="M-657 1454v166q0 59 31.5 109.5t84.5 74.5q29 14 58.5 16.5t60.5 2.5h422v-111h-455q-12 0 -20 -2q-49 -10 -60.5 -46t-11.5 -79v-131h-110z" />
<glyph horiz-adv-x="1839" d="M164 203v903q0 37 18.5 65.5t46 51t60.5 38t63 23.5q66 18 136.5 23.5t136.5 -0.5q72 -6 137 -33t115 -78q45 -47 71.5 -109.5t26.5 -128.5v-626q0 -80 44 -134.5t109.5 -81t142.5 -26.5t141.5 26.5t108.5 80t44 135.5v958h110v-958q0 -63 -25.5 -124t-66.5 -108 q-43 -45 -98 -72.5t-116.5 -39t-124 -8t-120.5 19.5q-55 16 -102 48t-83 76t-55.5 96t-19.5 112v626q0 51 -21.5 93.5t-56 73t-78.5 49t-94 22.5q-94 8 -194 -10q-16 -4 -40 -9.5t-45.5 -14.5t-38.5 -23.5t-22 -34.5v-901q2 -41 27 -66.5t66 -25.5h165v-111h-165 q-86 0 -144.5 58.5t-58.5 144.5z" />
<glyph horiz-adv-x="393" d="M121 1329l16 125l109 -12l-15 -125q-8 -66 3.5 -132.5t58.5 -113.5l-80 -78q-66 68 -84 157t-8 179z" />
<glyph horiz-adv-x="393" d="M115 1376l80 78q66 -68 84 -157t8 -179l-17 -125l-108 13l14 124q8 66 -3 132.5t-58 113.5z" />
<glyph horiz-adv-x="702" d="M94 389q0 51 20.5 98.5t56.5 82t82 55t97 20.5t98.5 -20.5t82 -55t55 -82t20.5 -98.5t-20.5 -97t-55 -82t-82 -56.5t-98.5 -20.5t-98 20.5t-82 55.5t-55.5 81t-20.5 99z" />
<glyph horiz-adv-x="944" d="M123 477v101h698v-101h-698z" />
<glyph horiz-adv-x="903" d="M0 477v101h903v-101h-903z" />
<glyph d="M-739 1657v166h110v-166q0 -41 27 -66.5t65 -25.5h455v-111h-455q-86 2 -144 59.5t-58 143.5z" />
<glyph unicode="&#x2dc;" d="M-739 1657v166h110v-166q0 -41 27 -66.5t65 -25.5h455v-111h-455q-86 2 -144 59.5t-58 143.5z" />
<glyph d="M-452.5 1620q6.5 37 28.5 68q20 31 52 51t67 27.5t71.5 0t69.5 -27.5q31 -23 51.5 -53.5t26.5 -65.5t-1 -72t-28 -67q-23 -33 -53.5 -52.5t-65 -26.5t-71.5 -1t-68 29q-31 20 -51 51.5t-27.5 66.5t-1 72zM-354 1620q-16 -41 1 -72.5t50 -45t68 -4.5t51 50q18 41 -0.5 73 t-50 45t-66.5 4t-53 -50z" />
<glyph unicode="&#x2122;" d="M-452.5 1620q6.5 37 28.5 68q20 31 52 51t67 27.5t71.5 0t69.5 -27.5q31 -23 51.5 -53.5t26.5 -65.5t-1 -72t-28 -67q-23 -33 -53.5 -52.5t-65 -26.5t-71.5 -1t-68 29q-31 20 -51 51.5t-27.5 66.5t-1 72zM-354 1620q-16 -41 1 -72.5t50 -45t68 -4.5t51 50q18 41 -0.5 73 t-50 45t-66.5 4t-53 -50z" />
<glyph d="M-1040 1712q14 78 64 131t120 80q37 16 75 22.5t79 10.5q35 2 71.5 3t71.5 -7q53 -10 108.5 4t96.5 47l59 -74q-59 -47 -134 -64.5t-146 -4.5q-49 4 -108.5 2t-115 -17.5t-96.5 -49.5t-51 -95q-4 -70 37 -111t106 -45l146 146q14 14 33.5 14t33.5 -12l144 -144h122v-94 h-143q-18 0 -33 14l-123 123l-127 -129q-20 -18 -53 -14t-55 8q-63 12 -111 53q-41 37 -59.5 92.5t-11.5 110.5z" />
<glyph d="M-422 1923v371h94v-371h-94z" />
<glyph unicode="&#x203a;" d="M-422 1923v371h94v-371h-94z" />
<glyph d="M-864 2181v94h190q18 0 32.5 -13t14.5 -34v-110q0 -83 82 -99q10 -2 13.5 -2h5.5h444v-94h-444q-84 2 -139.5 57.5t-55.5 137.5v63h-143z" />
<glyph unicode="&#x153;" d="M-864 2181v94h190q18 0 32.5 -13t14.5 -34v-110q0 -83 82 -99q10 -2 13.5 -2h5.5h444v-94h-444q-84 2 -139.5 57.5t-55.5 137.5v63h-143z" />
<glyph d="M-1063 1966q-6 51 0 105.5t29 101.5q12 27 30.5 49.5t45.5 36.5q23 12 59.5 20.5t58.5 -14.5l82 -82l78 78q16 14 39 15t46.5 -7t45 -21.5t33.5 -25.5q33 -31 48.5 -74t21.5 -86q2 -14 2 -24t2 -21h196v-94h-243q-20 0 -34 14.5t-14 32.5q0 37 -3 72t-13 64.5t-28.5 49 t-45.5 23.5l-98 -96q-14 -14 -33.5 -14.5t-34.5 14.5l-98 100q-35 -6 -53.5 -35.5t-24.5 -67.5t-4 -77t8 -66l-92 -18q-2 12 -3 23.5t-3 23.5z" />
<glyph d="M-612 2062v95h137v137h94v-137h139v-95h-139v-139h-94v139h-137z" />
<glyph d="M-635 1923v166q0 59 32 109.5t85 74.5q29 14 58.5 16.5t60.5 2.5h422v-111h-455q-13 0 -21 -2q-49 -10 -60 -46t-11 -79v-131h-111z" />
<glyph unicode="&#x178;" d="M-635 1923v166q0 59 32 109.5t85 74.5q29 14 58.5 16.5t60.5 2.5h422v-111h-455q-13 0 -21 -2q-49 -10 -60 -46t-11 -79v-131h-111z" />
<glyph unicode="&#xa1;" horiz-adv-x="1249" d="M164 0v1108q2 61 46 99t105.5 59.5t127 30t108.5 10.5q82 4 166 -6.5t157.5 -42t128 -90t74.5 -150.5q6 -27 7 -41t1 -19v-958h-110v958q-2 53 -25.5 94.5t-61.5 70t-85 46t-92 23.5q-33 4 -99.5 7t-137.5 -3t-129 -27.5t-71 -66.5v-1102h-110z" />
<glyph unicode="&#xa2;" horiz-adv-x="1118" d="M143 332v184q0 80 35 158t82 141q47 59 92 125t49 147q-2 41 -26.5 67t-65.5 26h-166v110h166q72 0 124 -40t71 -109q10 -37 6 -77t-16.5 -79t-32 -76t-39.5 -67q-23 -31 -46.5 -58.5t-43.5 -56.5q-31 -47 -54.5 -101.5t-23.5 -109.5v-184q2 -80 46 -134.5t109.5 -81 t141.5 -26.5t140.5 26.5t108.5 80t44 135.5v958h110v-958q0 -63 -25.5 -124t-68.5 -108q-41 -45 -96 -72.5t-116.5 -39t-124 -8t-120.5 19.5q-55 14 -102 47t-83 76t-55.5 96t-19.5 113z" />
<glyph unicode="&#xa3;" horiz-adv-x="1167" d="M41 1233l78 78l127 -127l106 106q53 0 99.5 -18.5t74.5 -67.5q39 -63 31 -134t-37 -136q-25 -53 -61.5 -101.5t-71.5 -97.5t-60.5 -102t-25.5 -117q0 -47 -1 -92t1 -92q2 -80 46 -134.5t109.5 -81t141.5 -26.5t140.5 26.5t108.5 80t44 135.5v958h110q-2 -240 0.5 -477.5 t-0.5 -476.5q-2 -68 -26.5 -131.5t-71.5 -110.5q-55 -57 -130 -83.5t-152 -30.5q-78 -4 -154 15t-139 66t-100.5 119t-37.5 152v119v66.5t7 64.5q12 61 39.5 118.5t64.5 106.5q35 47 71 93t58 99q6 18 12.5 46t5 54.5t-13.5 49t-39 29.5l-149 -150z" />
<glyph unicode="&#xa4;" horiz-adv-x="1249" d="M164 0v958q0 98 59.5 178.5t145.5 120.5q92 45 201.5 51.5t207.5 -16.5q63 -14 119.5 -46t98.5 -78t65.5 -104t23.5 -126v-938h-110v958q-2 51 -25.5 92.5t-60.5 71t-84 47t-92 23.5q-70 10 -147 3t-141.5 -36t-107.5 -84t-43 -141v-350q72 82 164 108.5t187 26.5v-111 q-72 0 -148 -16.5t-131 -69.5q-31 -31 -46 -63.5t-20.5 -68.5t-5.5 -73.5v-76.5v-240h-110z" />
<glyph unicode="&#xa5;" horiz-adv-x="1249" d="M164 0v989q0 49 17.5 96.5t47 87t68.5 70.5t84 51l33 15l211 -193l211 193l32 -15q84 -37 141.5 -106.5t71.5 -161.5q4 -16 4 -25.5v-11.5v-989h-110v987q-2 59 -36 109.5t-85 79.5l-229 -191l-230 191q-49 -29 -84 -79t-37 -110v-401q72 80 164 106.5t187 26.5v-111 q-55 0 -117 -12t-113 -40t-85 -74t-36 -113v-369h-110z" />
<glyph unicode="&#xa6;" horiz-adv-x="1275" d="M41 1233l78 78l127 -127l106 106q88 0 137.5 -44t63.5 -111q10 -47 1 -92.5t-26 -90.5q-23 -57 -60.5 -107t-74.5 -101.5t-63.5 -106.5t-28.5 -121q0 -70 20.5 -137.5t59.5 -123.5t94 -97t127 -56q66 -14 138.5 -10t131.5 35q57 29 92 85t37 120v958h111v-958 q0 -68 -25.5 -126.5t-68.5 -103.5t-99.5 -74.5t-119.5 -39.5q-70 -10 -140.5 -5t-136 29.5t-122 69.5t-99.5 111v-193h-111v516q0 80 35 159t82 140q47 59 92 125t50 147q-2 27 -13.5 54.5t-40.5 36.5l-149 -129z" />
<glyph unicode="&#xa7;" horiz-adv-x="1110" d="M41 459l78 78l444 -445q53 4 103.5 18.5t91.5 51.5q35 31 56.5 77t21.5 93v755q-2 41 -27 67t-66 26h-165v110h165q86 0 144.5 -58t58.5 -145v-755q0 -78 -37 -149.5t-96 -119.5q-49 -41 -110.5 -61t-124.5 -20h-41.5t-34.5 16z" />
<glyph unicode="&#xa8;" horiz-adv-x="1081" d="M41 1200q43 43 101.5 63.5t117.5 30.5q129 23 264 13q66 -6 127.5 -26.5t113.5 -56.5t90 -87t54 -119q6 -25 7.5 -40t1.5 -20v-958h-111v369q0 55 -33 104t-78 78q-53 35 -115.5 46t-123.5 11v111q94 0 186 -26.5t164 -108.5v374q-2 57 -29.5 100.5t-69.5 72t-94.5 45 t-101.5 20.5q-53 4 -110.5 2t-110.5 -10q-43 -6 -91 -19.5t-81 -46.5z" />
<glyph unicode="&#xa9;" horiz-adv-x="1216" d="M102 608v111h37q68 0 113 -48t45 -116v-223q2 -61 31.5 -119.5t85.5 -89.5q27 -14 60.5 -22.5t69.5 -9.5t71.5 2t64.5 11q66 18 114 59.5t80.5 97.5t49 120.5t18.5 128.5v448q-2 59 -31.5 102.5t-76 72t-100.5 44t-105 19.5q-59 4 -117.5 2t-118.5 -10q-45 -8 -98 -20.5 t-88 -45.5l-78 78q47 47 112.5 66.5t129.5 29.5q76 10 153.5 13.5t153.5 -6.5q68 -8 134.5 -35t119.5 -70t87 -103.5t34 -136.5v-958h-111v180q-39 -61 -95 -104t-120.5 -66.5t-133.5 -28t-132 8.5q-61 12 -111.5 44t-86.5 78t-56.5 102t-20.5 118v223q-2 23 -13 38t-34 15 h-37z" />
<glyph unicode="&#xaa;" horiz-adv-x="1122" d="M143 332v184q0 80 35 159t82 140q47 59 92 125t49 147q-2 41 -26.5 67t-65.5 26h-166v110h166q72 0 124 -40t71 -107q12 -47 4 -94.5t-25 -92.5q-29 -66 -70.5 -119t-80.5 -110q-31 -47 -53.5 -101.5t-24.5 -109.5v-184q2 -80 46 -134.5t109.5 -81t141.5 -26.5 t140.5 26.5t108.5 80t44 135.5v405q-2 41 -14.5 87t-43.5 77l-163 186l254 277l81 -74l-188 -203l96 -110q45 -45 65.5 -110.5t22.5 -127.5v-407q0 -63 -25.5 -124t-66.5 -108q-43 -45 -98 -72.5t-116.5 -39t-124 -8t-120.5 19.5q-55 16 -102 48t-83 76t-55.5 96t-19.5 112z " />
<glyph unicode="&#xab;" horiz-adv-x="1128" d="M0 1233l78 78l127 -133l106 112q88 0 137.5 -44t63.5 -111q10 -47 1 -92.5t-26 -90.5q-23 -57 -60.5 -107t-74.5 -101.5t-64.5 -106.5t-27.5 -121v-184q2 -80 46 -134.5t109.5 -81t141.5 -26.5t140.5 26.5t108.5 80t44 135.5v405q-2 41 -14.5 87t-42.5 77l-2 2l-162 184 l254 277l82 -74l-189 -203l96 -110q45 -45 65.5 -110.5t23.5 -127.5v-2v-405q0 -63 -26 -124t-67 -108q-43 -45 -98 -72.5t-116.5 -39t-124 -8t-119.5 19.5q-55 16 -102.5 48t-83.5 76t-55 96t-19 112v184q0 80 34.5 159t81.5 140q47 59 92 125t50 147q0 27 -12.5 54.5 t-41.5 36.5l-149 -129z" />
<glyph unicode="&#xac;" horiz-adv-x="1839" d="M164 203v903q0 37 17.5 65.5t45 51t61.5 38t64 23.5q66 18 135.5 23.5t137.5 -0.5q72 -6 137 -33t115 -78q45 -47 71.5 -109.5t26.5 -128.5v-442q0 -61 14.5 -126.5t45 -123t77.5 -100.5t113 -62q59 -16 125.5 -12t119.5 41q45 33 69 88t26 111v958h110v-958 q0 -59 -18.5 -115.5t-52 -102.5t-81.5 -79t-108 -45q-61 -12 -123.5 -8t-121 27.5t-108.5 64.5t-87 100v-174h-111v958q0 51 -21.5 93.5t-56 73t-78.5 49t-94 22.5q-94 8 -194 -10q-16 -4 -40 -9.5t-45.5 -14.5t-38.5 -23.5t-22 -34.5v-901q2 -41 27 -66.5t66 -25.5h165 v-111h-165q-86 0 -144.5 58.5t-58.5 144.5z" />
<glyph unicode="&#xad;" horiz-adv-x="1839" d="M164 203v903q0 37 18.5 65.5t46 51t60.5 38t63 23.5q66 18 136.5 23.5t136.5 -0.5q72 -6 137 -33t115 -78q45 -47 71.5 -109.5t26.5 -128.5v-626q0 -80 44 -134.5t109.5 -81t142.5 -26.5t141.5 26.5t108.5 80t44 135.5v958h110v-958q0 -63 -25.5 -124t-66.5 -108 q-43 -45 -98 -72.5t-116.5 -39t-124 -8t-120.5 19.5q-55 16 -102 48t-83 76t-55.5 96t-19.5 112v626q0 51 -21.5 93.5t-56 73t-78.5 49t-94 22.5q-94 8 -194 -10q-16 -4 -40 -9.5t-45.5 -14.5t-38.5 -23.5t-22 -34.5v-901q2 -41 27 -66.5t66 -25.5h165v-111h-165 q-86 0 -144.5 58.5t-58.5 144.5zM922 -258h348q66 0 130 18.5t107 71.5l86 -70q-59 -72 -145 -101.5t-178 -29.5h-348v111z" />
<glyph unicode="&#xde;" horiz-adv-x="1839" d="M164 203v903q0 37 18.5 65.5t46 51t60.5 38t63 23.5q66 18 136.5 23.5t136.5 -0.5q72 -6 137 -33t115 -78q45 -47 71.5 -109.5t26.5 -128.5v-626q0 -80 44 -134.5t109.5 -81t142.5 -26.5t141.5 26.5t108.5 80t44 135.5v958h110v-958q0 -63 -25.5 -124t-66.5 -108 q-43 -45 -98 -72.5t-116.5 -39t-124 -8t-120.5 19.5q-55 16 -102 48t-83 76t-55.5 96t-19.5 112v626q0 51 -21.5 93.5t-56 73t-78.5 49t-94 22.5q-94 8 -194 -10q-16 -4 -40 -9.5t-45.5 -14.5t-38.5 -23.5t-22 -34.5v-901q2 -41 27 -66.5t66 -25.5h165v-111h-165 q-86 0 -144.5 58.5t-58.5 144.5zM922 -258h348q66 0 130 18.5t107 71.5l86 -70q-59 -72 -145 -101.5t-178 -29.5h-348v111z" />
<glyph unicode="&#xae;" horiz-adv-x="1259" d="M82 0v111h45q23 0 34 15t13 38v944q2 33 18.5 59.5t41 46t54 34t58.5 24.5q51 16 105.5 23.5t109.5 11.5q61 4 124 1t124 -20q55 -16 107.5 -46t92.5 -73t63.5 -96t23.5 -115v-976q0 -72 -31 -138.5t-84 -113.5q-59 -53 -136 -76t-155 -23h-459v111h459q53 0 107.5 12.5 t97.5 46.5q41 31 65.5 80t24.5 101v976q-2 59 -30.5 103.5t-73.5 73t-99.5 43t-105.5 18.5q-113 10 -225 -12q-18 -4 -44 -9.5t-50.5 -14.5t-45 -23.5t-26.5 -34.5v-938q0 -68 -45 -116t-113 -48h-45z" />
<glyph unicode="&#xaf;" horiz-adv-x="1259" d="M82 0v111h45q23 0 34 15t13 38v944q2 33 18.5 59.5t41 47t54 35t58.5 22.5q51 16 105.5 23.5t109.5 11.5q61 4 125 1t123 -20q55 -14 107.5 -45t92.5 -74t63.5 -96t23.5 -115v-1017q0 -100 -67.5 -184.5t-182.5 -135.5l-211 213l-199 -203h-205v111h160l244 223l229 -211 q49 29 84 79t37 110v1015q-2 59 -30.5 103.5t-73.5 73t-99.5 43t-105.5 18.5q-113 10 -225 -12q-18 -4 -44 -9.5t-50.5 -14.5t-45 -23.5t-26.5 -34.5v-938q0 -68 -45 -116t-113 -48h-45z" />
<glyph unicode="&#xb0;" horiz-adv-x="1087" d="M41 1200q33 33 77 53.5t91 31.5t96 16.5t94 7.5q51 2 102.5 -1t101.5 -13.5t96 -30t87 -52.5q12 23 16.5 47.5t4.5 49.5h111q0 -47 -12.5 -94.5t-43.5 -86.5q25 -37 40.5 -80.5t15.5 -89.5v-958h-111v369q-4 68 -38 113.5t-84 73.5t-111.5 40t-116.5 12v111 q94 0 186 -24.5t164 -90.5v354q-2 57 -29.5 100.5t-69.5 73t-94.5 46t-101.5 20.5q-53 4 -110.5 2t-110.5 -10q-43 -6 -91 -20.5t-81 -47.5zM106 -258h109l242 223l231 -213q20 12 40 26.5t36 35.5l86 -70q-29 -37 -73 -65.5t-109 -57.5l-211 213l-199 -203h-152v111z" />
<glyph unicode="&#xb1;" horiz-adv-x="1392" d="M41 1233l78 78l127 -127l106 106q35 0 66 -5t59 -28q33 -23 48.5 -61.5t23.5 -77.5q31 51 74 98.5t100 71.5q59 27 128 23t130 -25q104 -35 175 -125t73 -203v-958h-111v852v96t-18 94q-27 59 -78 97.5t-115 52.5q-35 8 -73.5 8t-73.5 -16q-33 -16 -59.5 -42t-43.5 -59 q-49 -86 -99 -165.5t-99 -163.5q-29 -53 -35 -116t-6 -122v-516h-111v516q0 72 10.5 145.5t40.5 139.5q16 35 35 64.5t33 64.5t21.5 76t3.5 81q0 27 -13.5 54.5t-42.5 36.5l-149 -129z" />
<glyph unicode="&#xb2;" horiz-adv-x="1839" d="M164 295v686q0 49 17.5 96t47 87t68.5 71t84 51l33 14l155 -139l156 139l33 -14q45 -20 84 -51t68.5 -71t47 -87t17.5 -96v-465q0 -61 14.5 -126.5t45 -123t77.5 -100.5t113 -62q59 -16 125.5 -12t119.5 41q45 33 70 88t25 111v958h110v-958q0 -59 -18.5 -114.5 t-52 -101.5t-81.5 -79t-108 -45q-61 -14 -123.5 -9t-121 27.5t-108.5 63.5t-87 100v-174h-111v979q-2 59 -36.5 110.5t-84.5 79.5l-174 -155l-174 155q-49 -29 -84 -80t-37 -110v-684q0 -29 7.5 -60.5t21.5 -59.5t36.5 -48.5t53.5 -28.5q57 -16 123 6.5t107 63.5l77 -78 q-66 -66 -163 -95.5t-189 1.5q-47 14 -81 46t-57.5 73t-34.5 87t-11 93z" />
<glyph unicode="&#xb3;" horiz-adv-x="1837" d="M164 203v903q0 37 17.5 65.5t45 51t61.5 38t64 23.5q66 18 135.5 23.5t137.5 -0.5q72 -6 137 -33t115 -78q45 -47 71.5 -109.5t26.5 -128.5v-628q2 -59 28.5 -115.5t75.5 -89.5q53 -35 123 -37t129 18q61 20 104.5 64.5t72 101t42 120t13.5 122.5v776h110v-1290h-110v170 q-74 -119 -194 -164t-243 -16q-59 12 -107 45t-82 78t-53.5 101t-19.5 116v628q0 51 -20.5 93.5t-55 73t-79.5 49t-95 22.5q-94 8 -194 -10q-16 -4 -40 -9.5t-45.5 -14.5t-38.5 -23.5t-22 -34.5v-901q2 -41 27 -66.5t66 -25.5h165v-111h-165q-86 0 -144.5 58.5t-58.5 144.5z " />
<glyph unicode="&#xb4;" horiz-adv-x="1249" d="M147 788q2 49 7.5 100.5t15.5 101.5t30.5 96.5t55.5 84.5q70 76 169 107t200 31q61 0 122.5 -10.5t118 -35t102 -63.5t76.5 -96q18 -33 29.5 -71t11.5 -75v-958h-110v958q-2 68 -36 114t-85 74t-112.5 40t-116.5 12q-43 0 -88 -6t-86 -21.5t-77 -41t-61 -64.5 q-20 -35 -28.5 -73t-12.5 -77q-12 -88 -18 -176q-4 -86 -2 -173t10 -173q2 -33 6 -75t13.5 -82.5t29 -74.5t56.5 -52q31 -16 65.5 -17.5t69.5 8t66.5 27.5t54.5 41l77 -78q-35 -35 -82 -60.5t-98 -37.5t-103 -9t-100 27q-49 25 -79.5 64t-47 87t-23.5 99t-13 100 q-23 213 -7 428z" />
<glyph unicode="&#xb5;" horiz-adv-x="1249" d="M135 765q6 134 35 263v-2q16 88 73.5 156.5t137.5 103.5l33 14l211 -192l211 192l32 -14q84 -37 141.5 -106.5t71.5 -161.5q4 -16 4 -25.5v-13.5v-979h-110v979q-2 59 -37 109.5t-84 78.5l-229 -190l-230 190q-96 -55 -119 -163q-10 -57 -17 -113.5t-11 -116.5 q-8 -131 -2 -265t35 -263q12 -55 44.5 -101.5t96.5 -52.5q53 -4 108.5 17.5t92.5 58.5l77 -78q-57 -57 -138 -87t-161 -19q-90 12 -141 67t-76.5 131t-34 161t-12.5 157q-8 131 -2 265z" />
<glyph unicode="&#xb6;" horiz-adv-x="1249" d="M164 203v905q2 35 19.5 62.5t45 48t59 35t60.5 22.5q66 20 134.5 26.5t135.5 6.5q74 0 149 -15.5t137.5 -50.5t108.5 -91t64 -136q6 -25 7 -40t1 -18v-958h-110v958q-2 59 -31 103.5t-74 73t-99 43t-105 18.5q-115 6 -226 -12q-18 -4 -43.5 -9.5t-50 -14.5t-45 -23.5 t-27.5 -34.5v-899q2 -41 27 -66.5t66 -25.5h165v-111h-165q-86 0 -144.5 58.5t-58.5 144.5z" />
<glyph unicode="&#xb7;" horiz-adv-x="1249" d="M164 0v1290h110v-192q43 68 100.5 111.5t124 68.5t137.5 30t142 -8q63 -10 118.5 -40.5t97.5 -74.5t66.5 -102.5t24.5 -124.5v-958h-110v958q-2 66 -41 123.5t-98 85.5q-61 29 -134 32t-139 -13q-68 -16 -122 -57.5t-91 -97.5t-56.5 -122.5t-19.5 -134.5v-774h-110z" />
<glyph unicode="&#xb8;" horiz-adv-x="1130" d="M103.5 1018q7.5 80 50.5 143q43 66 113.5 102.5t146.5 51.5q78 16 156.5 15t156.5 -11q66 -10 134.5 -30.5t115.5 -67.5l-78 -78q-20 20 -48 32.5t-59.5 20.5t-63.5 11t-58 5q-76 8 -154 6.5t-149 -30.5q-70 -27 -116 -83t-36 -134q6 -41 29.5 -72t57.5 -51.5t73 -33.5 t74 -21h2l362 -88q92 -25 146.5 -96t64.5 -163q10 -98 -23.5 -186t-109.5 -151q-78 -61 -173 -85t-194 -24h-215q-86 0 -144.5 58.5t-58.5 144.5v332h111v-332q2 -41 26.5 -66.5t65.5 -25.5h215q51 0 103.5 7t101.5 25.5t89 50t67 78.5q25 43 31 93.5t-6.5 97.5t-43 84 t-82.5 51l-358 88q-86 16 -168 59t-125 123q-37 70 -29.5 150z" />
<glyph unicode="&#xb9;" horiz-adv-x="1249" d="M164 330v960h110v-960q2 -66 40 -124.5t100 -86.5q61 -29 134 -31t138 14q68 16 122 57.5t91 97.5t56.5 122.5t19.5 134.5v776h110v-1290h-110v190q-43 -68 -101.5 -111.5t-124 -68t-137 -30t-141.5 7.5q-63 10 -118.5 40.5t-97.5 74.5t-66.5 102.5t-24.5 124.5z" />
<glyph unicode="&#xba;" horiz-adv-x="1249" d="M164 332v958h110v-958q2 -68 36 -114t85 -73.5t112.5 -40t117.5 -12.5q59 0 117.5 10.5t111.5 40.5q49 29 84 79t37 110v958h110v-958q0 -66 -29.5 -127.5t-76.5 -106.5q-49 -45 -110.5 -71.5t-128 -38t-135 -8t-130.5 15.5q-59 12 -115.5 42t-99.5 73t-69.5 99 t-26.5 122z" />
<glyph unicode="&#xbb;" horiz-adv-x="1249" d="M164 332v958h110v-958q2 -68 36 -114t85 -73.5t112.5 -40t117.5 -12.5q59 0 117.5 10.5t111.5 40.5q49 29 84 79t37 110v1272h110v-1272q0 -66 -29.5 -127.5t-76.5 -106.5q-49 -45 -110.5 -71.5t-128 -38t-135 -8t-130.5 15.5q-59 12 -115.5 42t-99.5 73t-69.5 99 t-26.5 122z" />
<glyph unicode="&#xbc;" horiz-adv-x="1249" d="M164 301v786q0 86 58.5 144.5t144.5 58.5h165v-110h-165q-41 0 -66 -26t-27 -67v-784q2 -59 37 -109.5t84 -78.5l230 211l229 -211q49 29 84 79t37 109v987h110v-989q0 -49 -17 -96t-47 -87t-69 -71t-84 -51l-32 -14l-211 213l-211 -213l-33 14q-45 20 -84 51t-68.5 71 t-47 87t-17.5 96z" />
<glyph unicode="&#xbd;" horiz-adv-x="1249" d="M164 301v786q0 86 58.5 144.5t144.5 58.5h165v-110h-165q-41 0 -66 -26t-27 -67v-784q2 -59 37 -109.5t84 -78.5l230 211l229 -211q49 29 84 79t37 109v1301h110v-1303q0 -49 -17 -96t-47 -87t-69 -71t-84 -51l-32 -14l-211 213l-211 -213l-33 14q-45 20 -84 51t-68.5 71 t-47 87t-17.5 96z" />
<glyph unicode="&#xbe;" horiz-adv-x="1359" d="M164 205v1085h110v-1085q2 -35 20.5 -56.5t45.5 -34t57.5 -17.5t57.5 -5t56.5 5t54 18.5t42 35t19.5 54.5v606h106v-606q2 -35 20.5 -56.5t45 -34t58.5 -17.5t58 -5q27 0 55.5 5t54.5 18.5t42 35t18 54.5v1085h111v-1085q0 -61 -28.5 -105.5t-74.5 -72t-103.5 -39 t-115 -6t-109.5 26t-85 59.5q-33 -39 -85 -60.5t-108.5 -27t-114 6t-103.5 40t-75.5 72.5t-29.5 106z" />
<glyph unicode="&#xbf;" horiz-adv-x="1359" d="M164 205v1085h110v-1085q2 -35 20.5 -56.5t45.5 -34t57.5 -17.5t57.5 -5t56.5 5t54 18.5t42 35t19.5 54.5v606h106v-606q2 -35 20.5 -56.5t45 -34t58.5 -17.5t58 -5q27 0 55.5 5t54.5 18.5t42 35t18 54.5v1399h111v-1399q0 -61 -28.5 -105.5t-74.5 -72t-103.5 -39 t-115 -6t-109.5 26t-85 59.5q-33 -39 -85 -60.5t-108.5 -27t-114 6t-103.5 40t-75.5 72.5t-29.5 106z" />
<glyph unicode="&#xc0;" horiz-adv-x="1259" d="M82 0v111h45q23 0 34 15t13 38v944q2 33 18.5 59.5t41 47t54 35t58.5 22.5q51 16 105.5 23.5t109.5 11.5q61 4 125 1t123 -20q55 -14 107.5 -45t92.5 -74t63.5 -96t23.5 -115v-958h-111v958q-2 59 -30.5 103.5t-73.5 73t-99.5 43t-105.5 18.5q-113 10 -225 -12 q-18 -4 -44 -9.5t-50.5 -14.5t-45 -23.5t-26.5 -34.5v-938q0 -68 -45 -116t-113 -48h-45z" />
<glyph unicode="&#xc1;" horiz-adv-x="1249" d="M164 0v1290h110v-776q0 -70 20.5 -137.5t59.5 -123.5t94.5 -97t126.5 -56q66 -14 138.5 -10t132.5 35q57 29 92 85t37 120v960h110v-960q0 -68 -25.5 -126.5t-68.5 -103.5t-99 -74.5t-120 -39.5q-70 -10 -140.5 -5t-136 29.5t-122 69.5t-99.5 110v-190h-110z" />
<glyph unicode="&#xc2;" horiz-adv-x="1187" d="M164 332v106q0 63 28.5 126t77.5 106q-49 43 -77.5 105.5t-28.5 123.5v188q0 86 58.5 144.5t144.5 58.5h165v-110h-165q-41 0 -66 -26t-27 -67v-188q0 -27 5.5 -56.5t18.5 -55t34.5 -43t54.5 -19.5h246v-111h-246q-33 -2 -54.5 -19t-34.5 -43t-18.5 -56.5t-5.5 -57.5 v-106q2 -68 36 -114t85 -73.5t112.5 -40t117.5 -12.5q55 0 116.5 12.5t112.5 40t85 73.5t36 114v958h110v-958q0 -63 -28.5 -122.5t-71.5 -105.5q-47 -47 -108.5 -74.5t-129 -40t-136 -9t-132.5 15.5q-61 12 -117.5 41t-100.5 72t-70.5 99t-26.5 124z" />
<glyph unicode="&#xc3;" horiz-adv-x="1206" d="M123 109l78 77q45 -45 110.5 -62.5t124.5 -25.5q80 -10 164 -9t162 26t136 81t71 140q6 37 2 76t-19.5 71.5t-43 57t-68.5 37.5l-359 88q-86 16 -168 59t-125 123q-37 70 -29.5 149.5t50.5 143.5q43 66 113.5 102.5t146.5 52.5q78 16 157 14.5t156 -12.5 q66 -10 134.5 -30.5t115.5 -67.5l-78 -78q-20 20 -47.5 32.5t-59.5 21t-63.5 11.5t-58.5 7q-76 6 -153.5 4t-149.5 -31q-70 -27 -116 -83t-36 -134q6 -41 30 -71.5t57.5 -51t73.5 -34t75 -21.5l362 -88h2q49 -14 87 -43t65 -65.5t40 -75.5t17 -74q8 -74 -9 -144.5 t-64 -129.5q-41 -53 -95.5 -88t-115 -53.5t-125 -26t-127.5 -4.5q-53 2 -110.5 7t-113 18t-106.5 38t-90 66z" />
<glyph unicode="&#xc4;" horiz-adv-x="1249" d="M164 203v905q2 35 19.5 62.5t45 48t59 35t60.5 22.5q66 20 134.5 26.5t135.5 6.5q74 0 149 -15.5t137.5 -50.5t108.5 -91t64 -136q6 -25 7 -40t1 -18v-1423h-110v1423q-2 59 -31 103.5t-74 73t-99 43t-105 18.5q-115 6 -226 -12q-18 -4 -43.5 -9.5t-50 -14.5t-45 -23.5 t-27.5 -34.5v-899q2 -41 27 -66.5t66 -25.5h165v-111h-165q-86 0 -144.5 58.5t-58.5 144.5z" />
<glyph unicode="&#xc5;" horiz-adv-x="1167" d="M87 290q-13 75 9 146q20 72 74.5 122t126.5 69l365 78q37 6 77.5 23t74.5 44t56.5 60.5t22.5 72.5v53q-2 57 -28.5 100.5t-68.5 72t-94.5 45t-101.5 20.5q-55 4 -121.5 2t-122.5 -10q-43 -6 -91 -19.5t-79 -46.5l-80 78q47 47 114 67.5t132 30.5q70 10 151 11.5t148 -9.5 q66 -10 129.5 -36.5t112.5 -70.5t80 -102.5t31 -132.5v-958h-111v702q-90 -82 -211 -106l-358 -78q-57 -14 -88 -53t-39.5 -87t8 -99.5t55.5 -88.5t91 -59t110.5 -32.5t117 -8.5t109.5 12l21 -108q-72 -14 -151 -14t-155.5 18t-144.5 57t-113 101q-45 59 -58 134z" />
<glyph unicode="&#xc6;" horiz-adv-x="1259" d="M82 0v111h45q23 0 34 15t13 38v944q2 33 18.5 59.5t41 47t54 35t58.5 22.5q51 16 105.5 23.5t109.5 11.5q61 4 125 1t123 -20q55 -14 107.5 -45t92.5 -74t63.5 -96t23.5 -115v-1423h-111v1423q-2 59 -30.5 103.5t-73.5 73t-99.5 43t-105.5 18.5q-113 10 -225 -12 q-18 -4 -44 -9.5t-50.5 -14.5t-45 -23.5t-26.5 -34.5v-938q0 -68 -45 -116t-113 -48h-45z" />
<glyph unicode="&#xc7;" horiz-adv-x="1122" d="M82 1200q43 43 101.5 63.5t117.5 30.5q129 23 264 13q66 -6 128.5 -25.5t114.5 -55.5t89 -88t53 -120q6 -27 7 -41t1 -19v-614q0 -117 -73.5 -201t-177.5 -123q-53 -20 -111.5 -28t-116.5 -10q-57 -2 -114.5 4t-108.5 32l49 99q37 -18 82 -21.5t86 -3.5q45 2 90 7t86 18 q39 12 75 32.5t63.5 49t44 65.5t16.5 80v614q-2 57 -28.5 100.5t-68.5 72t-94.5 45t-101.5 20.5q-55 4 -112.5 2t-110.5 -10q-43 -6 -91 -19.5t-79 -46.5z" />
<glyph unicode="&#xc8;" horiz-adv-x="1249" d="M164 0v956q0 61 23.5 113.5t61.5 95.5t89 73t106 46q115 33 247 22.5t235 -75.5q31 23 40 58.5t9 70.5h110q0 -55 -16 -109.5t-59 -93.5q33 -41 54 -94t21 -107v-956h-110v956q-2 68 -36 114t-85 73.5t-112.5 40t-116.5 12.5t-115.5 -12.5t-113 -40t-86.5 -73.5t-36 -114 v-350q72 66 164 89.5t187 23.5v-111q-59 0 -119 -10t-113 -41q-49 -29 -83 -79t-36 -109v-369h-110z" />
<glyph unicode="&#xc9;" horiz-adv-x="1343" d="M164 332v958h110v-958q2 -68 36 -114t85 -73.5t112.5 -40t117.5 -12.5q55 0 115.5 12.5t112.5 40t86 73.5t36 114v276h-182q-92 0 -178.5 30t-145.5 101l86 70q43 -53 107.5 -71.5t130.5 -18.5h182v571h110v-571h95v-111h-95v-276q0 -66 -29.5 -127.5t-76.5 -106.5 q-49 -45 -110.5 -71.5t-128 -38t-135 -8t-130.5 15.5q-59 12 -115.5 42t-99.5 73t-69.5 99t-26.5 122z" />
<glyph unicode="&#xca;" horiz-adv-x="1169" d="M87 290q-13 75 9 146q20 72 74.5 122t126.5 69l365 78q37 6 77.5 24.5t74.5 44t56.5 59t22.5 72.5v53q0 57 -27.5 100.5t-69.5 72t-94.5 45t-101.5 20.5q-55 4 -111.5 2t-111.5 -10q-43 -6 -91 -19.5t-79 -46.5l-80 78q33 33 75 53.5t89 31.5t95 15.5t91 6.5 q98 4 194.5 -9.5t180.5 -68.5q29 23 36 57.5t7 67.5h111q0 -53 -16.5 -107.5t-57.5 -93.5q33 -41 52.5 -91t19.5 -104v-958h-111v702q-90 -82 -211 -106l-358 -78q-57 -14 -88 -53t-39.5 -87t8 -99.5t55.5 -88.5t91 -59t110.5 -32.5t117 -8.5t109.5 12l21 -108 q-72 -14 -151 -14t-155.5 18t-144.5 57t-113 101q-45 59 -58 134z" />
<glyph unicode="&#xcb;" horiz-adv-x="1249" d="M164 0v1290h110v-424h441q51 4 99 19.5t85 50.5q35 33 54.5 77t21.5 91v186h110v-186q0 -47 -15 -92t-38 -84q-23 -37 -62.5 -67t-76.5 -52q78 -43 134 -123t58 -170v-516h-110v516q-2 45 -20.5 89t-51.5 75q-37 37 -86 53.5t-102 20.5h-441v-754h-110z" />
<glyph unicode="&#xcc;" horiz-adv-x="1359" d="M164 205v1085h110v-1085q2 -35 20.5 -56.5t45.5 -34t57.5 -17.5t57.5 -5t56.5 5t54 18.5t42 35t19.5 54.5v606h106v-606q2 -35 20.5 -56.5t45 -34t58.5 -17.5t58 -5q27 0 55.5 5t54.5 18.5t42 35t18 54.5v799q0 27 -5 57.5t-18 56t-34.5 43t-54.5 19.5h-146v110h146 q33 2 54.5 19.5t34.5 43t18 55.5t5 56v140h111v-140q0 -61 -28.5 -123.5t-77.5 -105.5q47 -43 76.5 -104.5t29.5 -124.5v-801q0 -61 -28.5 -105.5t-74.5 -72t-103.5 -39t-115 -6t-109.5 26t-85 59.5q-33 -39 -85 -60.5t-108.5 -27t-114 6t-103.5 40t-75.5 72.5t-29.5 106z " />
<glyph unicode="&#xcd;" horiz-adv-x="1169" d="M123 1200q47 47 110.5 65.5t126.5 28.5q117 18 240 15.5t234 -54.5q88 -41 150.5 -117.5t62.5 -179.5v-626q-2 -72 -34 -135.5t-85 -108.5q-49 -43 -109.5 -67.5t-126 -34t-132 -6t-128.5 17.5q-59 12 -114.5 42t-98.5 73t-68.5 98t-25.5 121v182q0 43 16.5 80t43 64.5 t63.5 44t80 16.5h166v-111h-138h-31.5t-31.5 -6q-29 -10 -43 -33.5t-14 -52.5v-158q0 -45 11 -85t40 -74q39 -41 92 -64.5t106 -34.5q68 -12 138.5 -8t136.5 27q70 23 122 79t54 134v485v79t-4 81q-6 49 -32 87t-64.5 63.5t-83.5 42t-90 22.5q-63 10 -129 8t-130 -10 q-51 -8 -107 -19.5t-95 -48.5z" />
<glyph unicode="&#xce;" horiz-adv-x="1169" d="M123 1200q33 31 75 51.5t89 31.5t94 16.5t90 7.5q106 6 213 -5.5t199 -70.5q35 20 44 58t9 73h111q0 -55 -17.5 -110.5t-60.5 -94.5q35 -41 56.5 -93t21.5 -106v-626q0 -66 -30 -127.5t-77 -106.5q-49 -45 -110.5 -71.5t-128 -38t-135 -8t-130.5 15.5q-59 12 -115.5 42 t-99.5 73t-69.5 99t-26.5 122v184q0 86 58.5 144.5t144.5 58.5h166v-111h-166q-41 0 -65.5 -25.5t-26.5 -66.5v-184q2 -68 36.5 -115t87 -74.5t115 -39t117.5 -11.5q53 0 113.5 13.5t110.5 41t84 72.5t36 113v626q-2 61 -33 105.5t-78 72t-102 42t-107 18.5q-57 4 -115.5 2 t-117.5 -12q-45 -6 -96 -18.5t-86 -45.5z" />
<glyph unicode="&#xcf;" horiz-adv-x="931" d="M86 1065h111q-6 -43 -1 -88t27 -80q27 -41 72 -54.5t92 -11.5q102 4 172 71t96 163h113v-1143q0 -63 -33 -120.5t-82 -94.5q-57 -41 -124.5 -57.5t-135.5 -16.5v111q41 0 87 9t84 29.5t64.5 54.5t28.5 85v922q-74 -82 -184.5 -112t-214.5 5q-51 18 -87 52t-56.5 79 t-27.5 95.5t-1 101.5z" />
<glyph unicode="&#xd0;" horiz-adv-x="690" d="M82 367l86 69q29 -35 67.5 -54.5t81.5 -27.5q-10 2 -2.5 1t23.5 -4t35.5 -5t32.5 0h202v-110h-202q-92 0 -178.5 29.5t-145.5 101.5zM82 1012l86 69q29 -35 67.5 -54.5t81.5 -27.5q-10 2 -2.5 1t23.5 -4t35.5 -5t32.5 0h202v-110h-202q-92 0 -178.5 29.5t-145.5 101.5z " />
<glyph unicode="&#xd1;" d="M-535 1657v166h111v-166q0 -41 26.5 -66.5t65.5 -25.5h455v-111h-455q-86 2 -144.5 59.5t-58.5 143.5z" />
<glyph unicode="&#xd2;" horiz-adv-x="1040" d="M0 1200q47 47 113.5 67.5t132.5 30.5q68 10 139.5 11.5t138.5 -9.5q66 -10 128.5 -36.5t112.5 -70.5t81 -103.5t31 -131.5v-958h-111v958q-2 57 -29.5 100.5t-69.5 72t-94.5 45t-101.5 20.5q-53 4 -110.5 2t-110.5 -10q-43 -6 -91 -19.5t-81 -46.5z" />
<glyph unicode="&#xd3;" horiz-adv-x="1044" d="M-452.5 1620q6.5 37 28.5 68q20 31 52 51t67 27.5t71.5 0t69.5 -27.5q31 -23 51.5 -53.5t26.5 -65.5t-1 -72t-28 -67q-23 -33 -53.5 -52.5t-65 -26.5t-71.5 -1t-68 29q-31 20 -51 51.5t-27.5 66.5t-1 72zM-354 1620q-16 -41 1 -72.5t50 -45t68 -4.5t51 50q18 41 -0.5 73 t-50 45t-66.5 4t-53 -50zM4 1200q41 45 100.5 64.5t118.5 29.5q66 10 131.5 14.5t130.5 -1.5q66 -6 128.5 -25.5t114.5 -55.5t90 -88t54 -120q6 -25 7.5 -40t1.5 -20v-958h-111v958q-2 57 -29.5 100.5t-69.5 73t-94.5 45t-101.5 19.5q-55 4 -111.5 2t-111.5 -10 q-41 -6 -89 -18.5t-81 -45.5z" />
<glyph unicode="&#xd4;" d="M-975 1454v111h811v-111h-811z" />
<glyph unicode="&#xd5;" d="M-975 1454v111h608q41 2 67 26.5t26 65.5v166h110v-166q0 -86 -58.5 -143.5t-144.5 -59.5h-608z" />
<glyph unicode="&#xd6;" d="M-977 1454v111h461q-27 61 -8.5 118.5t61.5 94.5t103.5 44t115.5 -30t70.5 -94.5t-0.5 -111.5t-61.5 -93t-110.5 -39h-631zM-435 1627.5q3 -25.5 20.5 -47t47.5 -28.5q31 -8 61 7.5t42 44.5t4 56.5t-27.5 45.5t-47 22.5t-54.5 -10.5q-27 -14 -38 -39.5t-8 -51z" />
<glyph unicode="&#xd7;" d="M-975 1454v111h381q41 2 66.5 26.5t25.5 65.5v166h107v-166q0 -23 -9.5 -49.5t-31.5 -42.5h69q41 2 67 26.5t26 65.5v166h110v-166q0 -86 -58.5 -143.5t-144.5 -59.5h-608z" />
<glyph unicode="&#xd8;" d="M-397 -186q49 0 91 -17.5t73.5 -48.5t50 -74t18.5 -92v-205h-104v203q-4 55 -40 89t-89 34v111z" />
<glyph unicode="&#xd9;" d="M-547 -186h105v-275q2 -27 21.5 -43t45 -22t51 1t41.5 25q14 18 14.5 44t0.5 48v222h104v-277q-2 -57 -29.5 -96t-70.5 -57.5t-92.5 -18.5t-91 19.5t-70.5 57.5t-29 95v277z" />
<glyph unicode="&#xda;" d="M-270 -233q0 31 21.5 52t51.5 21q31 0 52.5 -21t21.5 -52t-21.5 -52.5t-52.5 -21.5t-52 21.5t-21 52.5z" />
<glyph unicode="&#xdb;" />
<glyph unicode="&#xdc;" />
<glyph unicode="&#xdd;" />
<glyph unicode="&#xdf;" horiz-adv-x="1265" d="M164 45v1516h401v157h111v-157h102q61 0 112.5 -25t89.5 -67t63.5 -94t35.5 -107q10 -57 10.5 -119t-13 -122t-41 -113.5t-74.5 -92.5q70 -37 110.5 -102t56.5 -141q18 -88 11.5 -184.5t-47.5 -178.5q-37 -72 -107 -120t-154 -50h-155v-172h-111v172h-401zM274 156h557 q45 2 79 24.5t57.5 53t36 62.5t16.5 50q10 53 9 122t-21.5 130t-63.5 103t-115 44h-555v-589zM274 860h504q51 2 88 27.5t61.5 63.5t36 85t13.5 90q2 47 -4 97.5t-24.5 95.5t-51.5 79t-86 48q-14 4 -22.5 4h-10.5h-504v-590z" />
<glyph unicode="&#xe0;" horiz-adv-x="532" d="M164 203v1087h110v-1085q0 -29 14.5 -54.5t43.5 -35.5q8 -2 16 -3t19 -1h165v-111h-165q-86 0 -144.5 58.5t-58.5 144.5z" />
<glyph unicode="&#xe1;" horiz-adv-x="968" d="M164 203v1087h110v-1085q0 -29 14.5 -54.5t43.5 -35.5q8 -2 16 -3t19 -1h165v-111h-165q-86 0 -144.5 58.5t-58.5 144.5zM600 203v1087h111v-1085q0 -29 14 -54.5t43 -35.5q8 -2 16.5 -3t18.5 -1h166v-111h-166q-86 0 -144.5 58.5t-58.5 144.5z" />
<glyph unicode="&#xe2;" horiz-adv-x="669" d="M6 1663q12 70 60.5 115t119.5 45h443v-111h-443q-39 0 -56 -28.5t-17 -63.5q2 -43 17 -81t37.5 -72.5t48.5 -67.5t50 -66q43 -59 73 -134t32 -150v-844q0 -29 14 -54.5t43 -35.5q8 -2 16.5 -3t18.5 -1h166v-111h-166q-86 0 -144.5 58.5t-58.5 144.5v846q-2 68 -28.5 123 t-63.5 106t-75 102.5t-60 108.5q-16 41 -26.5 85t-0.5 89z" />
<glyph unicode="&#xe3;" horiz-adv-x="649" d="M2 1495q-6 63 13.5 120.5t57.5 102.5t92 73t118 32q63 2 119.5 -19.5t99.5 -62.5t68.5 -96.5t25.5 -118.5q0 -76 -42 -144.5t-89 -124.5q-45 -53 -80 -120.5t-35 -139.5v-792q0 -29 14.5 -54.5t43.5 -35.5q8 -2 16 -3t18 -1h166v-111h-166q-86 0 -144 58.5t-58 144.5v794 q0 92 43 177.5t102 150.5q18 18 37.5 42t36 50.5t27 53t10.5 53.5q0 53 -29 97t-74 70.5t-97 30.5t-97 -22q-47 -27 -71 -73t-25 -97t24 -98.5t76 -73.5l-64 -80q-53 33 -91 89t-46 128z" />
<glyph unicode="&#xe4;" horiz-adv-x="651" d="M-10 1765l78 80l178 -198l157 176q86 0 136.5 -44t64.5 -110q12 -61 -1 -115.5t-40.5 -103.5t-63.5 -96t-69 -95.5t-55.5 -100.5t-22.5 -109v-844q0 -29 14.5 -54.5t43.5 -35.5q8 -2 16 -3t18 -1h166v-111h-166q-86 0 -144 58.5t-58 144.5v846q0 80 33.5 158.5 t80.5 140.5q25 31 49.5 62.5t45 64t34 68.5t15.5 77q-2 27 -13.5 55.5t-40.5 34.5l-200 -201z" />
<glyph unicode="&#xe5;" horiz-adv-x="1081" d="M41 1200q47 47 113.5 67.5t132.5 30.5q68 10 139.5 11.5t138.5 -9.5q66 -10 128.5 -36.5t112.5 -70.5t81 -103.5t31 -131.5v-1327h-111v1327q-2 57 -29.5 100.5t-69.5 72t-94.5 45t-101.5 20.5q-53 4 -110.5 2t-110.5 -10q-43 -6 -91 -19.5t-81 -46.5z" />
<glyph unicode="&#xe6;" horiz-adv-x="886" d="M45 973q-6 53 2 112.5t33.5 108.5t74 82t121.5 33l103 -119l98 119q66 0 113 -27t76.5 -69t43 -94t13.5 -101v-1387h-111v1383q0 25 -3 53.5t-13 56t-28.5 47t-47.5 25.5l-141 -141l-146 145q-31 -6 -48 -31.5t-24 -58.5t-7 -66.5t2 -58.5q0 -8 2 -16t2 -16.5t2 -12.5 l-111 -18z" />
<glyph unicode="&#xe7;" d="M-844 1712q14 78 64.5 131t120.5 80q37 16 74.5 22.5t78.5 10.5q35 2 72 3t72 -7q53 -10 108 4t96 47l60 -74q-59 -47 -134 -64.5t-147 -4.5q-49 4 -108.5 2t-114.5 -17.5t-96 -49.5t-52 -95q-4 -70 37 -111t107 -45l145 146q14 14 33.5 14t34.5 -12l143 -144h123v-94 h-143q-18 0 -33 14l-123 123l-127 -129q-20 -18 -53 -14t-56 8q-63 12 -110 53q-41 37 -59.5 92.5t-12.5 110.5z" />
<glyph unicode="&#xe8;" d="M-258 1923v371h94v-371h-94z" />
<glyph unicode="&#xe9;" d="M-631 2181v94h191q18 0 32.5 -13t14.5 -34v-110q0 -83 82 -99q10 -2 13 -2h5h445v-94h-445q-84 2 -139 57.5t-55 137.5v63h-144z" />
<glyph unicode="&#xea;" d="M-664 1968q-6 51 0.5 105.5t28.5 101.5q12 27 30.5 49.5t45.5 36.5q23 12 59.5 20.5t59.5 -14.5l82 -82l77 78q16 14 39 15t46.5 -7t45 -21.5t33.5 -25.5q33 -31 48.5 -74t21.5 -86q2 -14 2 -24t2 -21h197v-94h-244q-20 0 -33.5 14.5t-13.5 32.5q0 37 -3 72t-13.5 64.5 t-29 49t-44.5 23.5l-99 -96q-14 -14 -33.5 -14t-33.5 14l-99 100q-35 -6 -53 -35.5t-24 -67.5t-4 -77t8 -66l-92 -18q-2 12 -3.5 23.5t-3.5 23.5z" />
<glyph unicode="&#xeb;" d="M-395 2062v95h137v137h94v-137h139v-95h-139v-139h-94v139h-137z" />
<glyph unicode="&#xec;" d="M-451 1790v166q0 59 32 109.5t85 74.5q29 14 58.5 16.5t60.5 2.5h422v-111h-455q-12 0 -20 -2q-49 -10 -60.5 -46t-11.5 -79v-131h-111z" />
<glyph unicode="&#xed;" d="M-350 1620q6 37 28 68q20 31 52 51t67 27.5t72 0t70 -27.5q31 -23 51 -53.5t26.5 -65.5t-1 -72t-27.5 -67q-23 -33 -53.5 -52.5t-65.5 -26.5t-72 -1t-67 29q-31 20 -51.5 51.5t-27.5 66.5t-1 72zM-252 1620q-16 -41 1.5 -72.5t50 -45t67.5 -4.5t51 50q18 41 0 73t-50 45 t-66.5 4t-53.5 -50z" />
<glyph unicode="&#xee;" />
<glyph unicode="&#xef;" horiz-adv-x="843" d="M123 473q0 61 23.5 115.5t63.5 95.5t95.5 64.5t116.5 23.5t115.5 -23.5t95.5 -64.5t64.5 -95t23.5 -116q0 -61 -23.5 -116.5t-64.5 -95.5t-95.5 -63.5t-115.5 -23.5t-116.5 23.5t-95.5 63.5t-63.5 95.5t-23.5 116.5zM219 473q0 -84 58.5 -142.5t142.5 -58.5t142.5 58.5 t58.5 142.5t-58.5 142.5t-142.5 58.5t-142.5 -58.5t-58.5 -142.5zM348 471q0 31 21.5 52.5t52.5 21.5t52.5 -21.5t21.5 -52.5q0 -29 -21.5 -51.5t-52.5 -22.5t-52.5 22.5t-21.5 51.5z" />
<glyph unicode="&#xf0;" horiz-adv-x="1249" d="M164 334v407q0 59 26.5 118t67.5 102q43 45 99.5 73.5t118 42t126 14.5t123.5 -8q61 -8 117.5 -29.5t104.5 -56t82 -84t48 -112.5q8 -35 8 -56v-415q-4 -70 -35.5 -132.5t-82.5 -107.5q-49 -41 -109.5 -65.5t-126 -33.5t-132.5 -6t-128 15q-59 12 -114.5 42t-98.5 73 t-68.5 98t-25.5 121zM274 336q0 -57 27 -99t68 -72t91 -46.5t99 -20.5q51 -4 107.5 -2t108.5 16.5t96 44.5t73 79q12 23 21.5 48t9.5 52v403q0 57 -34 107.5t-81 79.5q-53 33 -114.5 43t-120.5 10q-55 0 -117 -12.5t-113 -40t-85 -73.5t-36 -114v-403z" />
<glyph unicode="&#xf1;" horiz-adv-x="1150" d="M123 649v86q0 59 26.5 117.5t67.5 101.5q43 45 99.5 74t118 42t126 14t123.5 -7q61 -8 117.5 -29.5t104.5 -56.5t82 -84t48 -112q8 -35 8 -56v-413q-4 -96 -62 -174t-144 -119q-90 -43 -194.5 -50.5t-201.5 13.5l21 108q74 -16 154.5 -13t152.5 32q66 27 115 83t49 128 v399q0 57 -34 107.5t-81 79.5q-53 33 -114.5 43t-120.5 10q-55 0 -116.5 -12.5t-113 -40t-85 -73.5t-36.5 -114v-80q4 -53 36 -85.5t77 -52t95.5 -27t90.5 -7.5v-110q-72 0 -145.5 14t-134.5 55q-51 35 -89 89.5t-40 119.5z" />
<glyph unicode="&#xf2;" horiz-adv-x="1306" d="M164 301v2v883h110v-879q6 -55 47 -97t89 -65q57 -29 118.5 -38t122.5 -11t124 5.5t118 31.5q51 23 93 68t46 104v453q0 27 -4 61.5t-16.5 66.5t-35 55.5t-54.5 29.5l-156 -160l-160 160q-37 -6 -57.5 -35t-29.5 -65.5t-10 -76.5t3 -69l8 -53l-108 -19l-11 58 q-6 57 2.5 122.5t36 121t78.5 92t133 36.5l115 -131l113 131q61 0 107 -22.5t78 -58t50.5 -82t24.5 -95.5q2 -16 3 -34.5t1 -36.5v-451q-2 -66 -37 -124t-86 -97q-51 -41 -114.5 -63.5t-131 -30.5t-136.5 -5t-130 15q-57 10 -116.5 34.5t-109 62.5t-82 89.5t-36.5 116.5z " />
<glyph unicode="&#xf3;" horiz-adv-x="1249" d="M164 262v502q0 102 63.5 184t153.5 123l33 14l211 -213l211 213l32 -14q84 -37 140.5 -106.5t72.5 -161.5q2 -8 3 -17.5t1 -21.5v-764h-110v764q-2 59 -37 109.5t-84 78.5l-229 -211l-232 211q-49 -29 -83 -79t-36 -109v-502q2 -61 39 -98t89.5 -53.5t110.5 -18.5t105 8 l21 -108q-78 -16 -166 -10t-160 45q-63 35 -106 98t-43 137z" />
<glyph unicode="&#xf4;" horiz-adv-x="1318" d="M164 348v385q0 94 56 174t140 121q92 45 200 53.5t206 -12.5q88 -18 168 -16q49 0 102.5 8t93.5 39l66 -88q-59 -45 -132 -58.5t-144 -11.5q-55 0 -109.5 9.5t-108.5 15.5q-59 6 -126.5 3t-127 -24.5t-105.5 -63.5t-62 -112q-4 -16 -5.5 -26.5t-1.5 -12.5v-381 q0 -68 35 -114t86 -73.5t112.5 -39.5t117.5 -12h170q-51 45 -80 105t-33 132v23q2 63 39 117.5t88 89.5q61 41 135 56t148 15v-110q-41 0 -91.5 -7.5t-95.5 -27t-76.5 -53t-35.5 -84.5v-17q0 -68 34.5 -114t86 -73.5t112.5 -39.5t117 -12v-111h-518q-82 0 -164 17.5 t-150 66.5q-63 43 -105 114.5t-42 149.5z" />
<glyph unicode="&#xf5;" horiz-adv-x="1318" d="M164 348v389q0 61 24.5 115.5t64.5 97.5t92 73t110 44q-33 45 -36 96t18.5 95.5t64.5 74t98 31.5t98 -25.5t68 -70.5t25 -95.5t-31 -99.5h6q88 -18 168 -16q49 0 102.5 8t93.5 39l66 -88q-59 -45 -132 -58.5t-144 -11.5q-55 0 -109.5 9.5t-108.5 15.5q-59 6 -126.5 3 t-127 -24.5t-105.5 -63.5t-62 -112q-4 -16 -5.5 -26.5t-1.5 -12.5v-385q0 -68 35 -114t86 -73.5t112.5 -39.5t117.5 -12h170q-51 45 -80 105t-33 132v23q2 63 39 117.5t88 89.5q61 41 135 56t148 15v-110q-41 0 -91.5 -7.5t-95.5 -27t-76.5 -53t-35.5 -84.5v-17 q0 -68 34.5 -114t86 -73.5t112.5 -39.5t117 -12v-111h-518q-82 0 -164 17.5t-150 66.5q-63 43 -105 114.5t-42 149.5zM502 1169.5q2 -24.5 15 -45t33.5 -34t47.5 -15.5h16q29 2 50.5 19.5t33 42t9.5 52.5t-21 52q-18 23 -43 32t-51.5 6t-48 -18t-33.5 -42q-10 -25 -8 -49.5z " />
<glyph unicode="&#xf6;" horiz-adv-x="1298" d="M123 1012l78 78l133 -146q25 35 62.5 61.5t80.5 45t90 29t90 10.5q61 0 125 -10.5t121.5 -34t106.5 -61.5t84 -93q20 -33 29.5 -71t11.5 -77v-413q0 -37 -11.5 -75t-29.5 -71q-31 -61 -82 -102t-112.5 -64.5t-129.5 -32t-131 -3.5q-78 4 -151.5 26.5t-134 64.5 t-98.5 106.5t-42 150.5v22q0 39 15.5 77t42 68.5t59 54t67.5 38.5q53 25 109.5 33t116.5 8v-111q-41 0 -81 -4t-79 -18q-49 -18 -92 -55t-47 -95v-16q0 -72 36.5 -118t92 -73.5t120 -39t121.5 -9.5q55 0 109.5 12.5t99.5 39t77 68.5t42 101q2 8 2 63.5v124v135v99.5 q0 68 -34 113t-85 73.5t-111.5 42t-113.5 15.5q-57 0 -100 -7t-82 -27.5t-76 -56.5t-82 -93z" />
<glyph unicode="&#xf7;" horiz-adv-x="1597" d="M164 262v502q0 102 63.5 184t153.5 123l33 14l211 -213l211 213l32 -14q90 -41 153.5 -123t63.5 -184v-670q47 6 90.5 24.5t76 49.5t52 72t19.5 92v737h111v-737q0 -72 -31 -139.5t-84 -114.5q-59 -53 -141 -74.5t-203 -21.5v782q-2 59 -37 109.5t-84 78.5l-229 -211 l-232 211q-47 -29 -82 -79t-37 -109v-502q2 -61 39 -98t89.5 -53.5t110.5 -18.5t105 8l21 -108q-78 -16 -166 -10t-160 45q-63 35 -106 98t-43 137z" />
<glyph unicode="&#xf8;" horiz-adv-x="1318" d="M164 334v399q0 94 56 174t140 121q92 45 200 53.5t208 -12.5q41 -10 83 -13t83 -3q49 0 102.5 9t93.5 38l66 -88q-59 -43 -132 -57.5t-144 -12.5q-55 0 -109.5 9.5t-108.5 15.5q-59 6 -126.5 3t-127 -24.5t-105.5 -63.5t-62 -112q-4 -16 -5.5 -26.5t-1.5 -12.5v-397 q2 -70 41 -128.5t97 -92.5l254 233l252 -233q57 33 97 91t42 124v14q-2 55 -30 92t-70 60.5t-91 33t-94 9.5v110q72 0 142.5 -16.5t129.5 -59.5q53 -41 87 -101t36 -126v-16q0 -55 -18.5 -105.5t-51 -93.5t-74.5 -78t-91 -55l-33 -14l-233 233l-234 -233l-33 14 q-49 20 -92 55t-74.5 80t-50 96.5t-18.5 106.5z" />
<glyph unicode="&#xf9;" horiz-adv-x="1394" d="M166 330v493q2 88 57.5 152.5t134.5 89.5q49 16 102.5 21.5t104.5 -7.5q49 -10 89 -47t71 -78q53 78 143 111t179 4q43 -14 96 -14t84 39l86 -70q-25 -33 -59.5 -50.5t-73.5 -24.5t-79 -3t-77 15q-33 10 -65.5 12t-67.5 -8q-18 -6 -40 -20.5t-37 -31t-22.5 -36 t-0.5 -37.5q86 -213 160.5 -420t158.5 -420h-117q-78 205 -149.5 410.5t-157.5 406.5q-16 33 -34.5 64.5t-47.5 54.5q-35 33 -89 39t-106.5 -9.5t-91 -51t-41.5 -87.5v-485q0 -86 47.5 -139t117 -80t149.5 -31t145 8l21 -108q-98 -16 -200.5 -9t-193.5 52q-82 41 -139 121 t-57 174z" />
<glyph unicode="&#xfa;" horiz-adv-x="1173" />
<glyph unicode="&#xfb;" horiz-adv-x="1351" />
<glyph unicode="&#xfc;" d="M-330 -369q49 0 91 -17t74 -48t50.5 -74t18.5 -92v-205h-105v203q-4 55 -39.5 89t-89.5 34v110z" />
<glyph unicode="&#xfd;" d="M-512 -369h104v-274q2 -27 21.5 -43t45.5 -22.5t51.5 1t41.5 25.5q14 18 14.5 44t0.5 48v221h104v-276q0 -57 -28.5 -96t-71.5 -57.5t-92.5 -18.5t-91.5 19.5t-70.5 57.5t-28.5 95v276z" />
<glyph unicode="&#xfe;" d="M-270 -729q0 31 21.5 52.5t51.5 21.5q31 0 52.5 -21.5t21.5 -52.5t-21.5 -52.5t-52.5 -21.5t-52 21.5t-21 52.5z" />
<glyph unicode="&#xff;" horiz-adv-x="1941" d="M-150.5 329q17.5 93 52.5 171q37 86 92 161.5t127 135.5q59 51 136 82.5t157 11.5q47 -10 76.5 -35t47 -58.5t23.5 -73.5t6 -81q6 10 16.5 19.5t18.5 11.5q86 31 166 70.5t158 80.5l2 2q4 18 11 35t11 33q0 4 7.5 10t15.5 9.5t14 3.5t6 -9q0 -12 1 -23.5t1 -25.5 q27 14 53.5 26.5t55.5 24.5q18 8 26.5 -2t-6.5 -22q-4 -16 -6 -23q53 35 102.5 74t100.5 74q4 6 13 12t18.5 10t16.5 3t5 -9q0 -14 -2 -20q-4 -8 -8 -13q-23 -59 -29 -130.5t-6 -135.5q0 -25 4 -51.5t27 -42.5q29 -23 59.5 -6.5t53.5 43.5q-53 6 -78 39.5t-26 80t18.5 94.5 t54.5 79q29 25 71.5 36t73.5 -18q20 -16 25.5 -44t1.5 -56q14 23 31.5 42t40.5 29q14 10 20 11q41 4 69.5 -20.5t49.5 -59.5q6 37 6 70.5t-14 62.5q-10 23 -31 37t-43 20q-41 -25 -87 -38t-93 1q-16 6 -6 19.5t18 17.5q41 27 84 40t90 7q41 27 79 59t73 52q12 6 44.5 21.5 t66.5 22.5t58.5 2t22.5 -38q0 -8 -17.5 -19.5t-23.5 1.5q-12 23 -45 14.5t-72 -31t-76.5 -50.5t-62.5 -46q8 -4 15.5 -7t15.5 -7q37 -23 50 -60t11 -81t-11 -88t-15 -79q0 -6 -9.5 -13t-19.5 -12t-19.5 -6t-11.5 7q-6 20 -15 43.5t-22.5 45t-31 40t-37.5 27.5 q-20 -25 -34.5 -61t-30 -70.5t-37 -65.5t-54.5 -43q-43 -59 -96 -88q-35 -18 -83 -20.5t-77 32.5q-16 18 -21.5 45t-5.5 54.5t4.5 55t8.5 50.5q4 35 10 72t16 71q-23 -16 -44 -33.5t-44 -35.5q-20 -16 -38.5 -32.5t-41.5 -31.5q-4 -4 -10 -7t-12 -7l-6 -31q16 -10 36.5 -14 t34.5 -10q37 -16 56 -45q47 -74 0 -144q-12 -16 -39 -45t-59.5 -50.5t-64.5 -27.5t-52 23q-12 16 -13.5 39.5t4 50.5t12.5 50.5t11 39.5q4 23 8 43.5t8 42.5l-2 2q-27 12 -34 25.5t-1.5 27t21.5 24.5t35 21l4 4l6 19q-23 -12 -42 -24.5t-42 -24.5q-4 -25 -7 -48.5t-7 -47.5 q-14 -78 -26.5 -158t-35.5 -158q-2 -6 -11 -13t-20.5 -11.5t-19.5 -4.5t-8 11q2 76 16.5 151.5t28.5 149.5q4 23 8 44t8 44q-51 -27 -102 -50.5t-104 -45.5q31 -12 59.5 -33t46.5 -46.5t25.5 -57t-2.5 -64.5q-14 -49 -42 -87t-65 -69t-78 -54.5t-84 -43.5q-41 -18 -101 -49 t-127 -59.5t-137.5 -49t-134 -20.5t-115.5 26.5t-83 94.5q-37 84 -19.5 177zM-82 269q4 -42 20.5 -76.5t46 -61.5t74.5 -37q43 -10 88.5 -5t88.5 19.5t84.5 34t80.5 37.5q41 18 86 37t88 41.5t81 51t65 67.5q31 43 38 89t-36 87q-29 27 -63.5 47.5t-75.5 17.5q-12 0 -17 3 v-9q-2 -41 -7 -87t-15 -92t-27.5 -89t-42.5 -78q-14 -18 -35.5 -27.5t-39 -7.5t-28 17.5t0.5 46.5q2 8 11 15t20.5 10.5t18.5 1t5 -12.5q-10 -37 -2 -31.5t18 31.5q8 16 13.5 30.5t9.5 31.5q12 45 21.5 89t13.5 91q2 43 1 90t-13.5 88t-41 71.5t-79.5 43.5 q-49 12 -95.5 -2.5t-86.5 -42t-74.5 -65.5t-61.5 -75q-49 -66 -85 -144.5t-46 -162.5q-6 -41 -2 -83zM30 -111.5q1 9.5 8 18.5t15 16t13 9q125 74 263 116t281 61q25 4 48.5 5t48.5 3q6 4 13 7t13 7q76 43 149.5 90t149.5 91t154 83t162 70q20 6 27 2t6 -13.5t-10 -19.5 t-23 -16q-137 -61 -265.5 -139t-257.5 -156h93q37 0 79.5 -6t85.5 -9.5t84 1t76 20.5q63 33 100 91.5t66 124t60.5 129t84.5 106.5q31 27 72 32.5t78 -10.5q25 -10 41 -25.5t27 -35.5q10 35 17 70.5t11 70.5q0 6 8.5 14.5t18.5 14.5t19.5 6t13.5 -8q2 -6 8 -8.5t14 -4.5 t15.5 -4t11.5 -10q6 -14 -15.5 -25.5t-27.5 -1.5l-6 7q-4 -72 -23.5 -142.5t-24.5 -142.5q0 -10 -12 -20.5t-25.5 -16.5t-24.5 -6t-11 12q0 41 -5 83t-24 77q-20 37 -60 56.5t-75 -15.5q-37 -37 -61.5 -89t-45.5 -100q-23 -49 -50 -100t-63 -93t-82 -73t-104 -39 q-66 -10 -135 -3t-135 9h-96t-96 -4q-16 -10 -35 -19t-35 -20q-80 -41 -162 -73.5t-168 -55.5q-66 -16 -136.5 -26.5t-131.5 14.5q-10 4 -9 13.5zM176 -72q59 -4 124 16.5t114 37.5q37 12 73.5 27.5t71.5 31.5q-100 -14 -195.5 -41t-187.5 -72zM1056 562.5q-3 -23.5 3 -36.5 q12 -23 25.5 -27.5t26.5 0.5t25.5 17t22.5 23q60 65 15 133q-16 25 -39 32t-45 11q0 -4 -1.5 -8.5t-1.5 -8.5q-2 -12 -9 -36.5t-13 -50t-9 -49zM1443 801q5 -39 36 -58q16 -8 32 -12q8 20 20.5 52t18.5 64t2 60.5t-24 40.5q-25 14 -46.5 -9.5t-32.5 -61t-6 -76.5z M1991 743.5q-2 8.5 2 16.5q12 25 41 35q4 2 6 2t4 2q8 4 22.5 5t14.5 -13v-7q0 -12 -11.5 -23t-21.5 -18q-10 -4 -21.5 -8t-23.5 -2q-10 2 -12 10.5z" />
<glyph unicode="&#x2000;" horiz-adv-x="1147" />
<glyph unicode="&#x2001;" horiz-adv-x="2294" />
<glyph unicode="&#x2002;" horiz-adv-x="1147" />
<glyph unicode="&#x2003;" horiz-adv-x="2294" />
<glyph unicode="&#x2004;" horiz-adv-x="764" />
<glyph unicode="&#x2005;" horiz-adv-x="573" />
<glyph unicode="&#x2006;" horiz-adv-x="382" />
<glyph unicode="&#x2007;" horiz-adv-x="382" />
<glyph unicode="&#x2008;" horiz-adv-x="286" />
<glyph unicode="&#x2009;" horiz-adv-x="458" />
<glyph unicode="&#x200a;" horiz-adv-x="127" />
<glyph unicode="&#x2010;" horiz-adv-x="956" d="M123 526v99h711v-99h-711z" />
<glyph unicode="&#x2011;" horiz-adv-x="956" d="M123 526v99h711v-99h-711z" />
<glyph unicode="&#x2012;" horiz-adv-x="956" d="M123 526v99h711v-99h-711z" />
<glyph unicode="&#x2013;" horiz-adv-x="1269" d="M123 526v99h1024v-99h-1024z" />
<glyph unicode="&#x2014;" horiz-adv-x="2293" d="M123 526v99h2048v-99h-2048z" />
<glyph unicode="&#x202f;" horiz-adv-x="458" />
<glyph unicode="&#x205f;" horiz-adv-x="573" />
<glyph unicode="&#x25fc;" horiz-adv-x="1064" d="M0 0v1065h1065v-1065h-1065z" />
</font>
</defs>
</svg>
